solid cover
facet normal 0.0 0.0 -1.0
  outer loop
    vertex 105.50000000000001 135.286539 0.0
    vertex 0.0 0.0 0.0
    vertex 0.0 135.286539 0.0
  endloop
endfacet
facet normal 0.0 0.0 -1.0
  outer loop
    vertex 0.0 0.0 0.0
    vertex 105.50000000000001 135.286539 0.0
    vertex 105.50000000000001 0.0 0.0
  endloop
endfacet
facet normal -0.0 1.0 0.0
  outer loop
    vertex 0.0 135.286539 5.0
    vertex 105.50000000000001 135.286539 0.0
    vertex 0.0 135.286539 0.0
  endloop
endfacet
facet normal -0.0 1.0 0.0
  outer loop
    vertex 105.50000000000001 135.286539 0.0
    vertex 0.0 135.286539 5.0
    vertex 105.50000000000001 135.286539 5.0
  endloop
endfacet
facet normal -5.3459080237874834e-17 -1.0 -8.427951606986887e-17
  outer loop
    vertex 105.50000000000001 0.0 0.0
    vertex 94.01763809020505 -1.0270409714131775e-15 12.568148347421863
    vertex 0.0 0.0 0.0
  endloop
endfacet
facet normal -5.3459080237874834e-17 -1.0 -8.427951606986887e-17
  outer loop
    vertex 94.01763809020505 -1.0270409714131775e-15 12.568148347421863
    vertex 105.50000000000001 0.0 0.0
    vertex 94.2653668647302 -1.0369267614014038e-15 12.652240934977426
  endloop
endfacet
facet normal -5.3459080237874834e-17 -1.0 -8.427951606986887e-17
  outer loop
    vertex 94.2653668647302 -1.0369267614014038e-15 12.652240934977426
    vertex 105.50000000000001 0.0 0.0
    vertex 94.50000000000001 -1.0451696647042559e-15 12.767949192431123
  endloop
endfacet
facet normal -5.3459080237874834e-17 -1.0 -8.427951606986887e-17
  outer loop
    vertex 94.50000000000001 -1.0451696647042559e-15 12.767949192431123
    vertex 105.50000000000001 0.0 0.0
    vertex 94.71752285801745 -1.0516286429608576e-15 12.91329331941753
  endloop
endfacet
facet normal -5.3459080237874834e-17 -1.0 -8.427951606986887e-17
  outer loop
    vertex 94.71752285801745 -1.0516286429608576e-15 12.91329331941753
    vertex 105.50000000000001 0.0 0.0
    vertex 94.91421356237309 -1.056193181262471e-15 13.085786437626902
  endloop
endfacet
facet normal -5.3459080237874834e-17 -1.0 -8.427951606986887e-17
  outer loop
    vertex 94.91421356237309 -1.056193181262471e-15 13.085786437626902
    vertex 105.50000000000001 0.0 0.0
    vertex 95.08670668058248 -1.058785179093227e-15 13.282477141982557
  endloop
endfacet
facet normal -5.3459080237874834e-17 -1.0 -8.427951606986887e-17
  outer loop
    vertex 95.08670668058248 -1.058785179093227e-15 13.282477141982557
    vertex 105.50000000000001 0.0 0.0
    vertex 95.23205080756888 -1.0593602866516032e-15 13.499999999999998
  endloop
endfacet
facet normal -5.3459080237874834e-17 -1.0 -8.427951606986887e-17
  outer loop
    vertex 95.23205080756888 -1.0593602866516032e-15 13.499999999999998
    vertex 105.50000000000001 0.0 0.0
    vertex 95.34775906502257 -1.0579086636878262e-15 13.734633135269817
  endloop
endfacet
facet normal -5.3459080237874834e-17 -1.0 -8.427951606986887e-17
  outer loop
    vertex 95.34775906502257 -1.0579086636878262e-15 13.734633135269817
    vertex 105.50000000000001 0.0 0.0
    vertex 95.43185165257815 -1.054455147873272e-15 13.982361909794957
  endloop
endfacet
facet normal -5.3459080237874834e-17 -1.0 -8.427951606986887e-17
  outer loop
    vertex 95.43185165257815 -1.054455147873272e-15 13.982361909794957
    vertex 105.50000000000001 0.0 0.0
    vertex 105.50000000000001 -1.127986593019159e-14 66.91938003559743
  endloop
endfacet
facet normal -5.3459080237874834e-17 -1.0 -8.427951606986887e-17
  outer loop
    vertex 0.0 0.0 0.0
    vertex 94.01763809020505 -1.0270409714131775e-15 12.568148347421863
    vertex 93.50000000000001 -1.003042541877941e-15 12.5
  endloop
endfacet
facet normal -5.3459080237874834e-17 -1.0 -8.427951606986887e-17
  outer loop
    vertex 0.0 0.0 0.0
    vertex 93.50000000000001 -1.003042541877941e-15 12.5
    vertex 11.999999999999996 3.159198700244198e-15 12.499999999999998
  endloop
endfacet
facet normal -5.3459080237874834e-17 -1.0 -8.427951606986887e-17
  outer loop
    vertex 95.43185165257815 -1.054455147873272e-15 13.982361909794957
    vertex 105.50000000000001 -1.127986593019159e-14 66.91938003559743
    vertex 95.5 -1.0418120420290959e-15 14.499999999999996
  endloop
endfacet
facet normal -5.3459080237874834e-17 -1.0 -8.427951606986887e-17
  outer loop
    vertex 95.5 -1.0418120420290959e-15 14.499999999999996
    vertex 105.50000000000001 -1.127986593019159e-14 66.91938003559743
    vertex 95.5 -5.465481020664073e-16 54.91938003559742
  endloop
endfacet
facet normal -5.3459080237874834e-17 -1.0 -8.427951606986887e-17
  outer loop
    vertex 95.5 -5.465481020664073e-16 54.91938003559742
    vertex 105.50000000000001 -1.127986593019159e-14 66.91938003559743
    vertex 95.43185165257815 -5.40765983398749e-16 55.43701812580247
  endloop
endfacet
facet normal -5.3459080237874834e-17 -1.0 -8.427951606986887e-17
  outer loop
    vertex 95.43185165257815 -5.40765983398749e-16 55.43701812580247
    vertex 105.50000000000001 -1.127986593019159e-14 66.91938003559743
    vertex 95.34775906502257 -5.383065763359517e-16 55.6847469003276
  endloop
endfacet
facet normal -5.3459080237874834e-17 -1.0 -8.427951606986887e-17
  outer loop
    vertex 95.34775906502257 -5.383065763359517e-16 55.6847469003276
    vertex 105.50000000000001 -1.127986593019159e-14 66.91938003559743
    vertex 95.23205080756888 -5.361927767762306e-16 55.91938003559742
  endloop
endfacet
facet normal -5.3459080237874834e-17 -1.0 -8.427951606986887e-17
  outer loop
    vertex 95.23205080756888 -5.361927767762306e-16 55.91938003559742
    vertex 105.50000000000001 -1.127986593019159e-14 66.91938003559743
    vertex 95.08670668058248 -5.344607524161089e-16 56.13690289361486
  endloop
endfacet
facet normal -5.3459080237874834e-17 -1.0 -8.427951606986887e-17
  outer loop
    vertex 95.08670668058248 -5.344607524161089e-16 56.13690289361486
    vertex 105.50000000000001 -1.127986593019159e-14 66.91938003559743
    vertex 94.91421356237309 -5.331401386725957e-16 56.33359359797051
  endloop
endfacet
facet normal -5.3459080237874834e-17 -1.0 -8.427951606986887e-17
  outer loop
    vertex 94.91421356237309 -5.331401386725957e-16 56.33359359797051
    vertex 105.50000000000001 -1.127986593019159e-14 66.91938003559743
    vertex 94.71752285801745 -5.32253531612986e-16 56.506086716179894
  endloop
endfacet
facet normal -5.3459080237874834e-17 -1.0 -8.427951606986887e-17
  outer loop
    vertex 94.71752285801745 -5.32253531612986e-16 56.506086716179894
    vertex 105.50000000000001 -1.127986593019159e-14 66.91938003559743
    vertex 94.50000000000001 -5.318161013298836e-16 56.6514308431663
  endloop
endfacet
facet normal -5.3459080237874834e-17 -1.0 -8.427951606986887e-17
  outer loop
    vertex 94.50000000000001 -5.318161013298836e-16 56.6514308431663
    vertex 105.50000000000001 -1.127986593019159e-14 66.91938003559743
    vertex 94.2653668647302 -5.318353323767111e-16 56.76713910061999
  endloop
endfacet
facet normal -5.3459080237874834e-17 -1.0 -8.427951606986887e-17
  outer loop
    vertex 94.2653668647302 -5.318353323767111e-16 56.76713910061999
    vertex 105.50000000000001 -1.127986593019159e-14 66.91938003559743
    vertex 94.01763809020505 -5.323108957049254e-16 56.85123168817556
  endloop
endfacet
facet normal -5.3459080237874834e-17 -1.0 -8.427951606986887e-17
  outer loop
    vertex 94.01763809020505 -5.323108957049254e-16 56.85123168817556
    vertex 105.50000000000001 -1.127986593019159e-14 66.91938003559743
    vertex 93.50000000000001 -5.345908023787481e-16 56.91938003559742
  endloop
endfacet
facet normal -5.3459080237874834e-17 -1.0 -8.427951606986887e-17
  outer loop
    vertex 93.50000000000001 -5.345908023787481e-16 56.91938003559742
    vertex 105.50000000000001 -1.127986593019159e-14 66.91938003559743
    vertex 11.999999999999998 -5.345908023787485e-16 56.91938003559742
  endloop
endfacet
facet normal -5.3459080237874834e-17 -1.0 -8.427951606986887e-17
  outer loop
    vertex 0.0 0.0 0.0
    vertex 10.068148347421863 3.162803258500029e-15 13.982361909794957
    vertex 0.0 0.0 66.91938003559743
  endloop
endfacet
facet normal -5.3459080237874834e-17 -1.0 -8.427951606986887e-17
  outer loop
    vertex 10.068148347421863 3.162803258500029e-15 13.982361909794957
    vertex 0.0 0.0 0.0
    vertex 10.152240934977424 3.1784505410646026e-15 13.734633135269819
  endloop
endfacet
facet normal -5.3459080237874834e-17 -1.0 -8.427951606986887e-17
  outer loop
    vertex 10.152240934977424 3.1784505410646026e-15 13.734633135269819
    vertex 0.0 0.0 0.0
    vertex 10.267949192431121 3.1908163375660264e-15 13.499999999999998
  endloop
endfacet
facet normal -5.3459080237874834e-17 -1.0 -8.427951606986887e-17
  outer loop
    vertex 10.267949192431121 3.1908163375660264e-15 13.499999999999998
    vertex 0.0 0.0 0.0
    vertex 10.413293319417528 3.1996890657977138e-15 13.282477141982557
  endloop
endfacet
facet normal -5.3459080237874834e-17 -1.0 -8.427951606986887e-17
  outer loop
    vertex 10.413293319417528 3.1996890657977138e-15 13.282477141982557
    vertex 0.0 0.0 0.0
    vertex 10.585786437626904 3.2049169109196353e-15 13.085786437626902
  endloop
endfacet
facet normal -5.3459080237874834e-17 -1.0 -8.427951606986887e-17
  outer loop
    vertex 10.585786437626904 3.2049169109196353e-15 13.085786437626902
    vertex 0.0 0.0 0.0
    vertex 10.782477141982556 3.206410423052323e-15 12.91329331941753
  endloop
endfacet
facet normal -5.3459080237874834e-17 -1.0 -8.427951606986887e-17
  outer loop
    vertex 10.782477141982556 3.206410423052323e-15 12.91329331941753
    vertex 0.0 0.0 0.0
    vertex 10.999999999999998 3.204144047789106e-15 12.76794919243112
  endloop
endfacet
facet normal -5.3459080237874834e-17 -1.0 -8.427951606986887e-17
  outer loop
    vertex 10.999999999999998 3.204144047789106e-15 12.76794919243112
    vertex 0.0 0.0 0.0
    vertex 11.234633135269817 3.1981565634390972e-15 12.652240934977424
  endloop
endfacet
facet normal -5.3459080237874834e-17 -1.0 -8.427951606986887e-17
  outer loop
    vertex 11.234633135269817 3.1981565634390972e-15 12.652240934977424
    vertex 0.0 0.0 0.0
    vertex 11.482361909794957 3.1885504175195685e-15 12.568148347421861
  endloop
endfacet
facet normal -5.3459080237874834e-17 -1.0 -8.427951606986887e-17
  outer loop
    vertex 11.482361909794957 3.1885504175195685e-15 12.568148347421861
    vertex 0.0 0.0 0.0
    vertex 11.999999999999996 3.159198700244198e-15 12.499999999999998
  endloop
endfacet
facet normal -5.3459080237874834e-17 -1.0 -8.427951606986887e-17
  outer loop
    vertex 0.0 0.0 66.91938003559743
    vertex 10.068148347421863 3.162803258500029e-15 13.982361909794957
    vertex 9.999999999999998 3.122786718766189e-15 14.499999999999998
  endloop
endfacet
facet normal -5.3459080237874834e-17 -1.0 -8.427951606986887e-17
  outer loop
    vertex 0.0 0.0 66.91938003559743
    vertex 9.999999999999998 3.122786718766189e-15 14.499999999999998
    vertex 10.000000000000002 -4.503112863088796e-16 54.91938003559742
  endloop
endfacet
facet normal -5.3459080237874834e-17 -1.0 -8.427951606986887e-17
  outer loop
    vertex 0.0 0.0 66.91938003559743
    vertex 10.000000000000002 -4.503112863088796e-16 54.91938003559742
    vertex 10.068148347421864 -4.721244301797856e-16 55.43701812580247
  endloop
endfacet
facet normal -5.3459080237874834e-17 -1.0 -8.427951606986887e-17
  outer loop
    vertex 0.0 0.0 66.91938003559743
    vertex 10.068148347421864 -4.721244301797856e-16 55.43701812580247
    vertex 10.152240934977428 -4.825636607965657e-16 55.6847469003276
  endloop
endfacet
facet normal -5.3459080237874834e-17 -1.0 -8.427951606986887e-17
  outer loop
    vertex 0.0 0.0 66.91938003559743
    vertex 10.152240934977428 -4.825636607965657e-16 55.6847469003276
    vertex 10.267949192431123 -4.92451044343814e-16 55.91938003559742
  endloop
endfacet
facet normal -5.3459080237874834e-17 -1.0 -8.427951606986887e-17
  outer loop
    vertex 0.0 0.0 66.91938003559743
    vertex 10.267949192431123 -4.92451044343814e-16 55.91938003559742
    vertex 10.41329331941753 -5.016174049477364e-16 56.13690289361486
  endloop
endfacet
facet normal -5.3459080237874834e-17 -1.0 -8.427951606986887e-17
  outer loop
    vertex 0.0 0.0 66.91938003559743
    vertex 10.41329331941753 -5.016174049477364e-16 56.13690289361486
    vertex 10.585786437626904 -5.099059036370045e-16 56.33359359797051
  endloop
endfacet
facet normal -5.3459080237874834e-17 -1.0 -8.427951606986887e-17
  outer loop
    vertex 0.0 0.0 66.91938003559743
    vertex 10.585786437626904 -5.099059036370045e-16 56.33359359797051
    vertex 10.78247714198256 -5.171747219010388e-16 56.506086716179894
  endloop
endfacet
facet normal -5.3459080237874834e-17 -1.0 -8.427951606986887e-17
  outer loop
    vertex 0.0 0.0 66.91938003559743
    vertex 10.78247714198256 -5.171747219010388e-16 56.506086716179894
    vertex 11.0 -5.232994882440449e-16 56.6514308431663
  endloop
endfacet
facet normal -5.3459080237874834e-17 -1.0 -8.427951606986887e-17
  outer loop
    vertex 0.0 0.0 66.91938003559743
    vertex 11.0 -5.232994882440449e-16 56.6514308431663
    vertex 11.23463313526982 -5.281754062157876e-16 56.76713910061999
  endloop
endfacet
facet normal -5.3459080237874834e-17 -1.0 -8.427951606986887e-17
  outer loop
    vertex 0.0 0.0 66.91938003559743
    vertex 11.23463313526982 -5.281754062157876e-16 56.76713910061999
    vertex 11.482361909794959 -5.317190475079106e-16 56.85123168817556
  endloop
endfacet
facet normal -5.3459080237874834e-17 -1.0 -8.427951606986887e-17
  outer loop
    vertex 0.0 0.0 66.91938003559743
    vertex 11.482361909794959 -5.317190475079106e-16 56.85123168817556
    vertex 11.999999999999998 -5.345908023787485e-16 56.91938003559742
  endloop
endfacet
facet normal -5.3459080237874834e-17 -1.0 -8.427951606986887e-17
  outer loop
    vertex 0.0 0.0 66.91938003559743
    vertex 11.999999999999998 -5.345908023787485e-16 56.91938003559742
    vertex 105.50000000000001 -1.127986593019159e-14 66.91938003559743
  endloop
endfacet
facet normal -1.0 -8.265817866939684e-21 4.972306124057026e-19
  outer loop
    vertex 1.2581066349154457e-18 132.786539 5.0
    vertex 0.0 0.0 0.0
    vertex 0.0 0.0 66.91938003559743
  endloop
endfacet
facet normal -1.0 -8.265817866939684e-21 4.972306124057026e-19
  outer loop
    vertex 0.0 0.0 0.0
    vertex 1.2581066349154457e-18 132.786539 5.0
    vertex 0.0 135.286539 0.0
  endloop
endfacet
facet normal -1.0 -8.265817866939684e-21 4.972306124057026e-19
  outer loop
    vertex 0.0 135.286539 0.0
    vertex 1.2581066349154457e-18 132.786539 5.0
    vertex 0.0 135.286539 5.0
  endloop
endfacet
facet normal -0.0 -0.0 1.0
  outer loop
    vertex 103.00000000000001 2.4999999999999973 2.5
    vertex 2.5000000000000004 4.499999999999995 2.500000000000001
    vertex 2.5000000000000004 2.4999999999999956 2.5
  endloop
endfacet
facet normal -0.0 -0.0 1.0
  outer loop
    vertex 2.5000000000000004 4.499999999999995 2.500000000000001
    vertex 103.00000000000001 2.4999999999999973 2.5
    vertex 5.500000000000001 4.499999999999995 2.500000000000001
  endloop
endfacet
facet normal -0.0 -0.0 1.0
  outer loop
    vertex 5.500000000000001 4.499999999999995 2.500000000000001
    vertex 103.00000000000001 2.4999999999999973 2.5
    vertex 5.500000000000001 6.499999999999991 2.5000000000000004
  endloop
endfacet
facet normal -0.0 -0.0 1.0
  outer loop
    vertex 5.500000000000001 6.499999999999991 2.5000000000000004
    vertex 103.00000000000001 2.4999999999999973 2.5
    vertex 100.00000000000001 4.499999999999997 2.500000000000001
  endloop
endfacet
facet normal -0.0 -0.0 1.0
  outer loop
    vertex 100.00000000000001 4.499999999999997 2.500000000000001
    vertex 103.00000000000001 2.4999999999999973 2.5
    vertex 103.00000000000001 4.499999999999997 2.500000000000001
  endloop
endfacet
facet normal -0.0 -0.0 1.0
  outer loop
    vertex 5.500000000000001 6.499999999999991 2.5000000000000004
    vertex 2.5000000000000004 132.786539 2.5
    vertex 2.5000000000000004 6.499999999999991 2.5000000000000004
  endloop
endfacet
facet normal -0.0 -0.0 1.0
  outer loop
    vertex 2.5000000000000004 132.786539 2.5
    vertex 5.500000000000001 6.499999999999991 2.5000000000000004
    vertex 103.00000000000001 132.786539 2.5
  endloop
endfacet
facet normal -0.0 -0.0 1.0
  outer loop
    vertex 103.00000000000001 132.786539 2.5
    vertex 5.500000000000001 6.499999999999991 2.5000000000000004
    vertex 100.00000000000001 6.4999999999999964 2.5000000000000004
  endloop
endfacet
facet normal -0.0 -0.0 1.0
  outer loop
    vertex 100.00000000000001 6.4999999999999964 2.5000000000000004
    vertex 5.500000000000001 6.499999999999991 2.5000000000000004
    vertex 100.00000000000001 4.499999999999997 2.500000000000001
  endloop
endfacet
facet normal -0.0 -0.0 1.0
  outer loop
    vertex 103.00000000000001 132.786539 2.5
    vertex 100.00000000000001 6.4999999999999964 2.5000000000000004
    vertex 103.00000000000001 6.4999999999999964 2.5000000000000004
  endloop
endfacet
facet normal -0.0 -0.0 1.0
  outer loop
    vertex 1.2581066349154457e-18 132.786539 5.0
    vertex 105.50000000000001 135.286539 5.0
    vertex 0.0 135.286539 5.0
  endloop
endfacet
facet normal -0.0 -0.0 1.0
  outer loop
    vertex 105.50000000000001 135.286539 5.0
    vertex 1.2581066349154457e-18 132.786539 5.0
    vertex 2.5000000000000004 132.786539 5.0
  endloop
endfacet
facet normal -0.0 -0.0 1.0
  outer loop
    vertex 105.50000000000001 135.286539 5.0
    vertex 2.5000000000000004 132.786539 5.0
    vertex 103.00000000000001 132.786539 5.0
  endloop
endfacet
facet normal -0.0 -0.0 1.0
  outer loop
    vertex 105.50000000000001 135.286539 5.0
    vertex 103.00000000000001 132.786539 5.0
    vertex 105.50000000000001 132.786539 5.0
  endloop
endfacet
facet normal 0.0 -1.0 0.0
  outer loop
    vertex 103.00000000000001 132.786539 5.0
    vertex 2.5000000000000004 132.786539 2.5
    vertex 103.00000000000001 132.786539 2.5
  endloop
endfacet
facet normal 0.0 -1.0 0.0
  outer loop
    vertex 2.5000000000000004 132.786539 2.5
    vertex 103.00000000000001 132.786539 5.0
    vertex 2.5000000000000004 132.786539 5.0
  endloop
endfacet
facet normal 2.221366632189471e-17 1.0 3.122989025380298e-17
  outer loop
    vertex 2.5000000000000004 2.4999999999999956 2.5
    vertex 11.999999999999996 2.500000000000003 12.499999999999998
    vertex 103.00000000000001 2.4999999999999973 2.5
  endloop
endfacet
facet normal 2.221366632189471e-17 1.0 3.122989025380298e-17
  outer loop
    vertex 11.999999999999996 2.500000000000003 12.499999999999998
    vertex 2.5000000000000004 2.4999999999999956 2.5
    vertex 11.482361909794957 2.500000000000003 12.568148347421861
  endloop
endfacet
facet normal 2.221366632189471e-17 1.0 3.122989025380298e-17
  outer loop
    vertex 11.482361909794957 2.500000000000003 12.568148347421861
    vertex 2.5000000000000004 2.4999999999999956 2.5
    vertex 11.234633135269817 2.500000000000003 12.652240934977424
  endloop
endfacet
facet normal 2.221366632189471e-17 1.0 3.122989025380298e-17
  outer loop
    vertex 11.234633135269817 2.500000000000003 12.652240934977424
    vertex 2.5000000000000004 2.4999999999999956 2.5
    vertex 10.999999999999998 2.500000000000003 12.76794919243112
  endloop
endfacet
facet normal 2.221366632189471e-17 1.0 3.122989025380298e-17
  outer loop
    vertex 10.999999999999998 2.500000000000003 12.76794919243112
    vertex 2.5000000000000004 2.4999999999999956 2.5
    vertex 10.782477141982556 2.500000000000003 12.91329331941753
  endloop
endfacet
facet normal 2.221366632189471e-17 1.0 3.122989025380298e-17
  outer loop
    vertex 10.782477141982556 2.500000000000003 12.91329331941753
    vertex 2.5000000000000004 2.4999999999999956 2.5
    vertex 10.585786437626904 2.500000000000003 13.085786437626902
  endloop
endfacet
facet normal 2.221366632189471e-17 1.0 3.122989025380298e-17
  outer loop
    vertex 10.585786437626904 2.500000000000003 13.085786437626902
    vertex 2.5000000000000004 2.4999999999999956 2.5
    vertex 10.413293319417528 2.500000000000003 13.282477141982557
  endloop
endfacet
facet normal 2.221366632189471e-17 1.0 3.122989025380298e-17
  outer loop
    vertex 10.413293319417528 2.500000000000003 13.282477141982557
    vertex 2.5000000000000004 2.4999999999999956 2.5
    vertex 10.267949192431121 2.500000000000003 13.499999999999998
  endloop
endfacet
facet normal 2.221366632189471e-17 1.0 3.122989025380298e-17
  outer loop
    vertex 10.267949192431121 2.500000000000003 13.499999999999998
    vertex 2.5000000000000004 2.4999999999999956 2.5
    vertex 10.152240934977424 2.500000000000003 13.734633135269819
  endloop
endfacet
facet normal 2.221366632189471e-17 1.0 3.122989025380298e-17
  outer loop
    vertex 10.152240934977424 2.500000000000003 13.734633135269819
    vertex 2.5000000000000004 2.4999999999999956 2.5
    vertex 10.068148347421863 2.500000000000003 13.982361909794957
  endloop
endfacet
facet normal 2.221366632189471e-17 1.0 3.122989025380298e-17
  outer loop
    vertex 10.068148347421863 2.500000000000003 13.982361909794957
    vertex 2.5000000000000004 2.4999999999999956 2.5
    vertex 2.5 2.5 65.75361089020993
  endloop
endfacet
facet normal 2.221366632189471e-17 1.0 3.122989025380298e-17
  outer loop
    vertex 10.068148347421863 2.500000000000003 13.982361909794957
    vertex 2.5 2.5 65.75361089020993
    vertex 9.999999999999998 2.500000000000003 14.499999999999998
  endloop
endfacet
facet normal 2.221366632189471e-17 1.0 3.122989025380298e-17
  outer loop
    vertex 9.999999999999998 2.500000000000003 14.499999999999998
    vertex 2.5 2.5 65.75361089020993
    vertex 10.000000000000002 2.4999999999999996 54.91938003559742
  endloop
endfacet
facet normal 2.221366632189471e-17 1.0 3.122989025380298e-17
  outer loop
    vertex 10.000000000000002 2.4999999999999996 54.91938003559742
    vertex 2.5 2.5 65.75361089020993
    vertex 10.068148347421864 2.4999999999999996 55.43701812580247
  endloop
endfacet
facet normal 2.221366632189471e-17 1.0 3.122989025380298e-17
  outer loop
    vertex 10.068148347421864 2.4999999999999996 55.43701812580247
    vertex 2.5 2.5 65.75361089020993
    vertex 10.152240934977428 2.4999999999999996 55.6847469003276
  endloop
endfacet
facet normal 2.221366632189471e-17 1.0 3.122989025380298e-17
  outer loop
    vertex 10.152240934977428 2.4999999999999996 55.6847469003276
    vertex 2.5 2.5 65.75361089020993
    vertex 10.267949192431123 2.4999999999999996 55.91938003559742
  endloop
endfacet
facet normal 2.221366632189471e-17 1.0 3.122989025380298e-17
  outer loop
    vertex 10.267949192431123 2.4999999999999996 55.91938003559742
    vertex 2.5 2.5 65.75361089020993
    vertex 10.41329331941753 2.4999999999999996 56.13690289361486
  endloop
endfacet
facet normal 2.221366632189471e-17 1.0 3.122989025380298e-17
  outer loop
    vertex 10.41329331941753 2.4999999999999996 56.13690289361486
    vertex 2.5 2.5 65.75361089020993
    vertex 10.585786437626904 2.4999999999999996 56.33359359797051
  endloop
endfacet
facet normal 2.221366632189471e-17 1.0 3.122989025380298e-17
  outer loop
    vertex 10.585786437626904 2.4999999999999996 56.33359359797051
    vertex 2.5 2.5 65.75361089020993
    vertex 10.78247714198256 2.4999999999999996 56.506086716179894
  endloop
endfacet
facet normal 2.221366632189471e-17 1.0 3.122989025380298e-17
  outer loop
    vertex 10.78247714198256 2.4999999999999996 56.506086716179894
    vertex 2.5 2.5 65.75361089020993
    vertex 11.0 2.4999999999999996 56.6514308431663
  endloop
endfacet
facet normal 2.221366632189471e-17 1.0 3.122989025380298e-17
  outer loop
    vertex 11.0 2.4999999999999996 56.6514308431663
    vertex 2.5 2.5 65.75361089020993
    vertex 11.23463313526982 2.4999999999999996 56.76713910061999
  endloop
endfacet
facet normal 2.221366632189471e-17 1.0 3.122989025380298e-17
  outer loop
    vertex 11.23463313526982 2.4999999999999996 56.76713910061999
    vertex 2.5 2.5 65.75361089020993
    vertex 11.482361909794959 2.499999999999999 56.85123168817556
  endloop
endfacet
facet normal 2.221366632189471e-17 1.0 3.122989025380298e-17
  outer loop
    vertex 11.482361909794959 2.499999999999999 56.85123168817556
    vertex 2.5 2.5 65.75361089020993
    vertex 11.999999999999998 2.499999999999999 56.91938003559742
  endloop
endfacet
facet normal 2.221366632189471e-17 1.0 3.122989025380298e-17
  outer loop
    vertex 11.999999999999998 2.499999999999999 56.91938003559742
    vertex 2.5 2.5 65.75361089020993
    vertex 93.50000000000001 2.499999999999999 56.91938003559742
  endloop
endfacet
facet normal 2.221366632189471e-17 1.0 3.122989025380298e-17
  outer loop
    vertex 103.00000000000001 2.4999999999999973 2.5
    vertex 95.43185165257815 2.499999999999999 13.982361909794957
    vertex 103.00000000000001 2.499999999999989 65.75361089020993
  endloop
endfacet
facet normal 2.221366632189471e-17 1.0 3.122989025380298e-17
  outer loop
    vertex 95.43185165257815 2.499999999999999 13.982361909794957
    vertex 103.00000000000001 2.4999999999999973 2.5
    vertex 95.34775906502257 2.499999999999999 13.734633135269817
  endloop
endfacet
facet normal 2.221366632189471e-17 1.0 3.122989025380298e-17
  outer loop
    vertex 95.34775906502257 2.499999999999999 13.734633135269817
    vertex 103.00000000000001 2.4999999999999973 2.5
    vertex 95.23205080756888 2.499999999999999 13.499999999999998
  endloop
endfacet
facet normal 2.221366632189471e-17 1.0 3.122989025380298e-17
  outer loop
    vertex 95.23205080756888 2.499999999999999 13.499999999999998
    vertex 103.00000000000001 2.4999999999999973 2.5
    vertex 95.08670668058248 2.499999999999999 13.282477141982557
  endloop
endfacet
facet normal 2.221366632189471e-17 1.0 3.122989025380298e-17
  outer loop
    vertex 95.08670668058248 2.499999999999999 13.282477141982557
    vertex 103.00000000000001 2.4999999999999973 2.5
    vertex 94.91421356237309 2.499999999999999 13.085786437626902
  endloop
endfacet
facet normal 2.221366632189471e-17 1.0 3.122989025380298e-17
  outer loop
    vertex 94.91421356237309 2.499999999999999 13.085786437626902
    vertex 103.00000000000001 2.4999999999999973 2.5
    vertex 94.71752285801745 2.499999999999999 12.91329331941753
  endloop
endfacet
facet normal 2.221366632189471e-17 1.0 3.122989025380298e-17
  outer loop
    vertex 94.71752285801745 2.499999999999999 12.91329331941753
    vertex 103.00000000000001 2.4999999999999973 2.5
    vertex 94.50000000000001 2.499999999999999 12.767949192431123
  endloop
endfacet
facet normal 2.221366632189471e-17 1.0 3.122989025380298e-17
  outer loop
    vertex 94.50000000000001 2.499999999999999 12.767949192431123
    vertex 103.00000000000001 2.4999999999999973 2.5
    vertex 94.2653668647302 2.499999999999999 12.652240934977426
  endloop
endfacet
facet normal 2.221366632189471e-17 1.0 3.122989025380298e-17
  outer loop
    vertex 94.2653668647302 2.499999999999999 12.652240934977426
    vertex 103.00000000000001 2.4999999999999973 2.5
    vertex 94.01763809020505 2.499999999999999 12.568148347421863
  endloop
endfacet
facet normal 2.221366632189471e-17 1.0 3.122989025380298e-17
  outer loop
    vertex 94.01763809020505 2.499999999999999 12.568148347421863
    vertex 103.00000000000001 2.4999999999999973 2.5
    vertex 93.50000000000001 2.499999999999999 12.5
  endloop
endfacet
facet normal 2.221366632189471e-17 1.0 3.122989025380298e-17
  outer loop
    vertex 93.50000000000001 2.499999999999999 12.5
    vertex 103.00000000000001 2.4999999999999973 2.5
    vertex 11.999999999999996 2.500000000000003 12.499999999999998
  endloop
endfacet
facet normal 2.221366632189471e-17 1.0 3.122989025380298e-17
  outer loop
    vertex 103.00000000000001 2.499999999999989 65.75361089020993
    vertex 95.43185165257815 2.499999999999999 13.982361909794957
    vertex 95.5 2.499999999999999 14.499999999999996
  endloop
endfacet
facet normal 2.221366632189471e-17 1.0 3.122989025380298e-17
  outer loop
    vertex 103.00000000000001 2.499999999999989 65.75361089020993
    vertex 95.5 2.499999999999999 14.499999999999996
    vertex 95.5 2.499999999999999 54.91938003559742
  endloop
endfacet
facet normal 2.221366632189471e-17 1.0 3.122989025380298e-17
  outer loop
    vertex 103.00000000000001 2.499999999999989 65.75361089020993
    vertex 95.5 2.499999999999999 54.91938003559742
    vertex 95.43185165257815 2.499999999999999 55.43701812580247
  endloop
endfacet
facet normal 2.221366632189471e-17 1.0 3.122989025380298e-17
  outer loop
    vertex 103.00000000000001 2.499999999999989 65.75361089020993
    vertex 95.43185165257815 2.499999999999999 55.43701812580247
    vertex 95.34775906502257 2.499999999999999 55.6847469003276
  endloop
endfacet
facet normal 2.221366632189471e-17 1.0 3.122989025380298e-17
  outer loop
    vertex 103.00000000000001 2.499999999999989 65.75361089020993
    vertex 95.34775906502257 2.499999999999999 55.6847469003276
    vertex 95.23205080756888 2.499999999999999 55.91938003559742
  endloop
endfacet
facet normal 2.221366632189471e-17 1.0 3.122989025380298e-17
  outer loop
    vertex 103.00000000000001 2.499999999999989 65.75361089020993
    vertex 95.23205080756888 2.499999999999999 55.91938003559742
    vertex 95.08670668058248 2.499999999999999 56.13690289361486
  endloop
endfacet
facet normal 2.221366632189471e-17 1.0 3.122989025380298e-17
  outer loop
    vertex 103.00000000000001 2.499999999999989 65.75361089020993
    vertex 95.08670668058248 2.499999999999999 56.13690289361486
    vertex 94.91421356237309 2.499999999999999 56.33359359797051
  endloop
endfacet
facet normal 2.221366632189471e-17 1.0 3.122989025380298e-17
  outer loop
    vertex 103.00000000000001 2.499999999999989 65.75361089020993
    vertex 94.91421356237309 2.499999999999999 56.33359359797051
    vertex 94.71752285801745 2.499999999999999 56.506086716179894
  endloop
endfacet
facet normal 2.221366632189471e-17 1.0 3.122989025380298e-17
  outer loop
    vertex 103.00000000000001 2.499999999999989 65.75361089020993
    vertex 94.71752285801745 2.499999999999999 56.506086716179894
    vertex 94.50000000000001 2.499999999999999 56.6514308431663
  endloop
endfacet
facet normal 2.221366632189471e-17 1.0 3.122989025380298e-17
  outer loop
    vertex 103.00000000000001 2.499999999999989 65.75361089020993
    vertex 94.50000000000001 2.499999999999999 56.6514308431663
    vertex 94.2653668647302 2.499999999999999 56.76713910061999
  endloop
endfacet
facet normal 2.221366632189471e-17 1.0 3.122989025380298e-17
  outer loop
    vertex 103.00000000000001 2.499999999999989 65.75361089020993
    vertex 94.2653668647302 2.499999999999999 56.76713910061999
    vertex 94.01763809020505 2.499999999999999 56.85123168817556
  endloop
endfacet
facet normal 2.221366632189471e-17 1.0 3.122989025380298e-17
  outer loop
    vertex 103.00000000000001 2.499999999999989 65.75361089020993
    vertex 94.01763809020505 2.499999999999999 56.85123168817556
    vertex 93.50000000000001 2.499999999999999 56.91938003559742
  endloop
endfacet
facet normal 2.221366632189471e-17 1.0 3.122989025380298e-17
  outer loop
    vertex 103.00000000000001 2.499999999999989 65.75361089020993
    vertex 93.50000000000001 2.499999999999999 56.91938003559742
    vertex 2.5 2.5 65.75361089020993
  endloop
endfacet
facet normal 1.0 -0.0 -0.0
  outer loop
    vertex 105.50000000000001 0.0 0.0
    vertex 105.50000000000001 132.786539 5.0
    vertex 105.50000000000001 -1.127986593019159e-14 66.91938003559743
  endloop
endfacet
facet normal 1.0 -0.0 -0.0
  outer loop
    vertex 105.50000000000001 132.786539 5.0
    vertex 105.50000000000001 0.0 0.0
    vertex 105.50000000000001 135.286539 0.0
  endloop
endfacet
facet normal 1.0 -0.0 -0.0
  outer loop
    vertex 105.50000000000001 132.786539 5.0
    vertex 105.50000000000001 135.286539 0.0
    vertex 105.50000000000001 135.286539 5.0
  endloop
endfacet
facet normal -1.0 0.0 0.0
  outer loop
    vertex 103.00000000000001 2.499999999999989 65.75361089020993
    vertex 103.00000000000001 4.49999999999999 52.49999999999999
    vertex 103.00000000000001 2.4999999999999973 2.5
  endloop
endfacet
facet normal -1.0 0.0 0.0
  outer loop
    vertex 103.00000000000001 4.49999999999999 52.49999999999999
    vertex 103.00000000000001 2.499999999999989 65.75361089020993
    vertex 103.00000000000001 6.499999999999989 52.49999999999999
  endloop
endfacet
facet normal -1.0 0.0 0.0
  outer loop
    vertex 103.00000000000001 6.499999999999989 52.49999999999999
    vertex 103.00000000000001 2.499999999999989 65.75361089020993
    vertex 103.00000000000001 132.786539 5.0
  endloop
endfacet
facet normal -1.0 0.0 0.0
  outer loop
    vertex 103.00000000000001 6.499999999999989 52.49999999999999
    vertex 103.00000000000001 132.786539 5.0
    vertex 103.00000000000001 6.4999999999999964 2.5000000000000004
  endloop
endfacet
facet normal -1.0 0.0 0.0
  outer loop
    vertex 103.00000000000001 6.4999999999999964 2.5000000000000004
    vertex 103.00000000000001 132.786539 5.0
    vertex 103.00000000000001 132.786539 2.5
  endloop
endfacet
facet normal -1.0 0.0 0.0
  outer loop
    vertex 103.00000000000001 4.499999999999997 2.500000000000001
    vertex 103.00000000000001 2.4999999999999973 2.5
    vertex 103.00000000000001 4.49999999999999 52.49999999999999
  endloop
endfacet
facet normal 1.1926891333790608e-17 0.4226182617406995 0.9063077870366498
  outer loop
    vertex 0.0 0.0 66.91938003559743
    vertex 2.5 2.5 65.75361089020993
    vertex 1.2581066349154457e-18 132.786539 5.0
  endloop
endfacet
facet normal 1.1926891333790608e-17 0.4226182617406995 0.9063077870366498
  outer loop
    vertex 2.5 2.5 65.75361089020993
    vertex 0.0 0.0 66.91938003559743
    vertex 105.50000000000001 -1.127986593019159e-14 66.91938003559743
  endloop
endfacet
facet normal 1.1926891333790608e-17 0.4226182617406995 0.9063077870366498
  outer loop
    vertex 2.5 2.5 65.75361089020993
    vertex 105.50000000000001 -1.127986593019159e-14 66.91938003559743
    vertex 103.00000000000001 2.499999999999989 65.75361089020993
  endloop
endfacet
facet normal 1.1926891333790608e-17 0.4226182617406995 0.9063077870366498
  outer loop
    vertex 103.00000000000001 2.499999999999989 65.75361089020993
    vertex 105.50000000000001 -1.127986593019159e-14 66.91938003559743
    vertex 103.00000000000001 132.786539 5.0
  endloop
endfacet
facet normal 1.1926891333790608e-17 0.4226182617406995 0.9063077870366498
  outer loop
    vertex 103.00000000000001 132.786539 5.0
    vertex 105.50000000000001 -1.127986593019159e-14 66.91938003559743
    vertex 105.50000000000001 132.786539 5.0
  endloop
endfacet
facet normal 1.1926891333790608e-17 0.4226182617406995 0.9063077870366498
  outer loop
    vertex 2.5000000000000004 132.786539 5.0
    vertex 1.2581066349154457e-18 132.786539 5.0
    vertex 2.5 2.5 65.75361089020993
  endloop
endfacet
facet normal -1.0 0.0 0.0
  outer loop
    vertex 100.00000000000001 6.499999999999989 52.49999999999999
    vertex 100.00000000000001 4.499999999999997 2.500000000000001
    vertex 100.00000000000001 4.49999999999999 52.49999999999999
  endloop
endfacet
facet normal -1.0 0.0 0.0
  outer loop
    vertex 100.00000000000001 4.499999999999997 2.500000000000001
    vertex 100.00000000000001 6.499999999999989 52.49999999999999
    vertex 100.00000000000001 6.4999999999999964 2.5000000000000004
  endloop
endfacet
facet normal -0.0 -1.0 -1.409983241273949e-16
  outer loop
    vertex 103.00000000000001 4.49999999999999 52.49999999999999
    vertex 100.00000000000001 4.499999999999997 2.500000000000001
    vertex 103.00000000000001 4.499999999999997 2.500000000000001
  endloop
endfacet
facet normal -0.0 -1.0 -1.409983241273949e-16
  outer loop
    vertex 100.00000000000001 4.499999999999997 2.500000000000001
    vertex 103.00000000000001 4.49999999999999 52.49999999999999
    vertex 100.00000000000001 4.49999999999999 52.49999999999999
  endloop
endfacet
facet normal 0.0 -0.0 1.0
  outer loop
    vertex 103.00000000000001 4.49999999999999 52.49999999999999
    vertex 100.00000000000001 6.499999999999989 52.49999999999999
    vertex 100.00000000000001 4.49999999999999 52.49999999999999
  endloop
endfacet
facet normal 0.0 -0.0 1.0
  outer loop
    vertex 100.00000000000001 6.499999999999989 52.49999999999999
    vertex 103.00000000000001 4.49999999999999 52.49999999999999
    vertex 103.00000000000001 6.499999999999989 52.49999999999999
  endloop
endfacet
facet normal 0.0 1.0 1.409983241273949e-16
  outer loop
    vertex 100.00000000000001 6.499999999999989 52.49999999999999
    vertex 103.00000000000001 6.4999999999999964 2.5000000000000004
    vertex 100.00000000000001 6.4999999999999964 2.5000000000000004
  endloop
endfacet
facet normal 0.0 1.0 1.409983241273949e-16
  outer loop
    vertex 103.00000000000001 6.4999999999999964 2.5000000000000004
    vertex 100.00000000000001 6.499999999999989 52.49999999999999
    vertex 103.00000000000001 6.499999999999989 52.49999999999999
  endloop
endfacet
facet normal 1.0 -8.941188206840382e-20 6.313833671398726e-18
  outer loop
    vertex 2.5000000000000004 132.786539 2.5
    vertex 2.5 6.499999999999998 52.49999999999999
    vertex 2.5000000000000004 6.499999999999991 2.5000000000000004
  endloop
endfacet
facet normal 1.0 -8.941188206840382e-20 6.313833671398726e-18
  outer loop
    vertex 2.5000000000000004 4.499999999999995 2.500000000000001
    vertex 2.5 2.5 65.75361089020993
    vertex 2.5000000000000004 2.4999999999999956 2.5
  endloop
endfacet
facet normal 1.0 -8.941188206840382e-20 6.313833671398726e-18
  outer loop
    vertex 2.5 2.5 65.75361089020993
    vertex 2.5000000000000004 4.499999999999995 2.500000000000001
    vertex 2.5 4.499999999999999 52.49999999999999
  endloop
endfacet
facet normal 1.0 -8.941188206840382e-20 6.313833671398726e-18
  outer loop
    vertex 2.5 2.5 65.75361089020993
    vertex 2.5 4.499999999999999 52.49999999999999
    vertex 2.5 6.499999999999998 52.49999999999999
  endloop
endfacet
facet normal 1.0 -8.941188206840382e-20 6.313833671398726e-18
  outer loop
    vertex 2.5 2.5 65.75361089020993
    vertex 2.5 6.499999999999998 52.49999999999999
    vertex 2.5000000000000004 132.786539 5.0
  endloop
endfacet
facet normal 1.0 -8.941188206840382e-20 6.313833671398726e-18
  outer loop
    vertex 2.5000000000000004 132.786539 5.0
    vertex 2.5 6.499999999999998 52.49999999999999
    vertex 2.5000000000000004 132.786539 2.5
  endloop
endfacet
facet normal 1.0 -7.952210962693596e-33 7.049916206369744e-18
  outer loop
    vertex 5.500000000000001 6.499999999999991 2.5000000000000004
    vertex 5.5 4.499999999999999 52.49999999999999
    vertex 5.500000000000001 4.499999999999995 2.500000000000001
  endloop
endfacet
facet normal 1.0 -7.952210962693596e-33 7.049916206369744e-18
  outer loop
    vertex 5.5 4.499999999999999 52.49999999999999
    vertex 5.500000000000001 6.499999999999991 2.5000000000000004
    vertex 5.5 6.499999999999998 52.49999999999999
  endloop
endfacet
facet normal 8.946237333030292e-33 1.0 -1.409983241273949e-16
  outer loop
    vertex 2.5 6.499999999999998 52.49999999999999
    vertex 5.500000000000001 6.499999999999991 2.5000000000000004
    vertex 2.5000000000000004 6.499999999999991 2.5000000000000004
  endloop
endfacet
facet normal 8.946237333030292e-33 1.0 -1.409983241273949e-16
  outer loop
    vertex 5.500000000000001 6.499999999999991 2.5000000000000004
    vertex 2.5 6.499999999999998 52.49999999999999
    vertex 5.5 6.499999999999998 52.49999999999999
  endloop
endfacet
facet normal -7.049916206369744e-18 0.0 1.0
  outer loop
    vertex 5.5 4.499999999999999 52.49999999999999
    vertex 2.5 6.499999999999998 52.49999999999999
    vertex 2.5 4.499999999999999 52.49999999999999
  endloop
endfacet
facet normal -7.049916206369744e-18 0.0 1.0
  outer loop
    vertex 2.5 6.499999999999998 52.49999999999999
    vertex 5.5 4.499999999999999 52.49999999999999
    vertex 5.5 6.499999999999998 52.49999999999999
  endloop
endfacet
facet normal -8.548626784895615e-33 -1.0 8.459899447643695e-17
  outer loop
    vertex 5.5 4.499999999999999 52.49999999999999
    vertex 2.5000000000000004 4.499999999999995 2.500000000000001
    vertex 5.500000000000001 4.499999999999995 2.500000000000001
  endloop
endfacet
facet normal -8.548626784895615e-33 -1.0 8.459899447643695e-17
  outer loop
    vertex 2.5000000000000004 4.499999999999995 2.500000000000001
    vertex 5.5 4.499999999999999 52.49999999999999
    vertex 2.5 4.499999999999999 52.49999999999999
  endloop
endfacet
facet normal -1.0 2.4355095255263924e-17 -2.9842616150137366e-34
  outer loop
    vertex 95.5 -5.465481020664073e-16 54.91938003559742
    vertex 95.5 2.499999999999999 14.499999999999996
    vertex 95.5 -1.0418120420290959e-15 14.499999999999996
  endloop
endfacet
facet normal -1.0 2.4355095255263924e-17 -2.9842616150137366e-34
  outer loop
    vertex 95.5 2.499999999999999 14.499999999999996
    vertex 95.5 -5.465481020664073e-16 54.91938003559742
    vertex 95.5 2.499999999999999 54.91938003559742
  endloop
endfacet
facet normal -0.9914448613738106 2.8721829212860794e-17 -0.13052619222005077
  outer loop
    vertex 95.43185165257815 -5.40765983398749e-16 55.43701812580247
    vertex 95.5 2.499999999999999 54.91938003559742
    vertex 95.5 -5.465481020664073e-16 54.91938003559742
  endloop
endfacet
facet normal -0.9914448613738106 2.8721829212860794e-17 -0.13052619222005077
  outer loop
    vertex 95.5 2.499999999999999 54.91938003559742
    vertex 95.43185165257815 -5.40765983398749e-16 55.43701812580247
    vertex 95.43185165257815 2.499999999999999 55.43701812580247
  endloop
endfacet
facet normal -0.9469301294951038 3.4329401420625e-17 -0.32143946530316714
  outer loop
    vertex 95.34775906502257 -5.383065763359517e-16 55.6847469003276
    vertex 95.43185165257815 2.499999999999999 55.43701812580247
    vertex 95.43185165257815 -5.40765983398749e-16 55.43701812580247
  endloop
endfacet
facet normal -0.9469301294951038 3.4329401420625e-17 -0.32143946530316714
  outer loop
    vertex 95.43185165257815 2.499999999999999 55.43701812580247
    vertex 95.34775906502257 -5.383065763359517e-16 55.6847469003276
    vertex 95.34775906502257 2.499999999999999 55.6847469003276
  endloop
endfacet
facet normal -0.8968727415326941 3.7346155159206214e-17 -0.4422886902189896
  outer loop
    vertex 95.23205080756888 -5.361927767762306e-16 55.91938003559742
    vertex 95.34775906502257 2.499999999999999 55.6847469003276
    vertex 95.34775906502257 -5.383065763359517e-16 55.6847469003276
  endloop
endfacet
facet normal -0.8968727415326941 3.7346155159206214e-17 -0.4422886902189896
  outer loop
    vertex 95.34775906502257 2.499999999999999 55.6847469003276
    vertex 95.23205080756888 -5.361927767762306e-16 55.91938003559742
    vertex 95.23205080756888 2.499999999999999 55.91938003559742
  endloop
endfacet
facet normal -0.8314696123025453 3.9723905828703725e-17 -0.5555702330196023
  outer loop
    vertex 95.08670668058248 -5.344607524161089e-16 56.13690289361486
    vertex 95.23205080756888 2.499999999999999 55.91938003559742
    vertex 95.23205080756888 -5.361927767762306e-16 55.91938003559742
  endloop
endfacet
facet normal -0.8314696123025453 3.9723905828703725e-17 -0.5555702330196023
  outer loop
    vertex 95.23205080756888 2.499999999999999 55.91938003559742
    vertex 95.08670668058248 -5.344607524161089e-16 56.13690289361486
    vertex 95.08670668058248 2.499999999999999 56.13690289361486
  endloop
endfacet
facet normal -0.7518398074789513 4.142196945592486e-17 -0.6593458151000988
  outer loop
    vertex 94.91421356237309 -5.331401386725957e-16 56.33359359797051
    vertex 95.08670668058248 2.499999999999999 56.13690289361486
    vertex 95.08670668058248 -5.344607524161089e-16 56.13690289361486
  endloop
endfacet
facet normal -0.7518398074789513 4.142196945592486e-17 -0.6593458151000988
  outer loop
    vertex 95.08670668058248 2.499999999999999 56.13690289361486
    vertex 94.91421356237309 -5.331401386725957e-16 56.33359359797051
    vertex 94.91421356237309 2.499999999999999 56.33359359797051
  endloop
endfacet
facet normal -0.6593458151000988 4.2411291701414526e-17 -0.7518398074789513
  outer loop
    vertex 94.91421356237309 2.499999999999999 56.33359359797051
    vertex 94.71752285801745 -5.32253531612986e-16 56.506086716179894
    vertex 94.71752285801745 2.499999999999999 56.506086716179894
  endloop
endfacet
facet normal -0.6593458151000988 4.2411291701414526e-17 -0.7518398074789513
  outer loop
    vertex 94.71752285801745 -5.32253531612986e-16 56.506086716179894
    vertex 94.91421356237309 2.499999999999999 56.33359359797051
    vertex 94.91421356237309 -5.331401386725957e-16 56.33359359797051
  endloop
endfacet
facet normal -0.5555702330196023 4.2674944987262246e-17 -0.8314696123025453
  outer loop
    vertex 94.71752285801745 2.499999999999999 56.506086716179894
    vertex 94.50000000000001 -5.318161013298836e-16 56.6514308431663
    vertex 94.50000000000001 2.499999999999999 56.6514308431663
  endloop
endfacet
facet normal -0.5555702330196023 4.2674944987262246e-17 -0.8314696123025453
  outer loop
    vertex 94.50000000000001 -5.318161013298836e-16 56.6514308431663
    vertex 94.71752285801745 2.499999999999999 56.506086716179894
    vertex 94.71752285801745 -5.32253531612986e-16 56.506086716179894
  endloop
endfacet
facet normal -0.4422886902189896 4.220841813264762e-17 -0.8968727415326941
  outer loop
    vertex 94.50000000000001 2.499999999999999 56.6514308431663
    vertex 94.2653668647302 -5.318353323767111e-16 56.76713910061999
    vertex 94.2653668647302 2.499999999999999 56.76713910061999
  endloop
endfacet
facet normal -0.4422886902189896 4.220841813264762e-17 -0.8968727415326941
  outer loop
    vertex 94.2653668647302 -5.318353323767111e-16 56.76713910061999
    vertex 94.50000000000001 2.499999999999999 56.6514308431663
    vertex 94.50000000000001 -5.318161013298836e-16 56.6514308431663
  endloop
endfacet
facet normal -0.32143946530316714 4.101969354139927e-17 -0.9469301294951038
  outer loop
    vertex 94.2653668647302 2.499999999999999 56.76713910061999
    vertex 94.01763809020505 -5.323108957049254e-16 56.85123168817556
    vertex 94.01763809020505 2.499999999999999 56.85123168817556
  endloop
endfacet
facet normal -0.32143946530316714 4.101969354139927e-17 -0.9469301294951038
  outer loop
    vertex 94.01763809020505 -5.323108957049254e-16 56.85123168817556
    vertex 94.2653668647302 2.499999999999999 56.76713910061999
    vertex 94.2653668647302 -5.318353323767111e-16 56.76713910061999
  endloop
endfacet
facet normal -0.13052619222005077 3.79302758270207e-17 -0.9914448613738106
  outer loop
    vertex 94.01763809020505 2.499999999999999 56.85123168817556
    vertex 93.50000000000001 -5.345908023787481e-16 56.91938003559742
    vertex 93.50000000000001 2.499999999999999 56.91938003559742
  endloop
endfacet
facet normal -0.13052619222005077 3.79302758270207e-17 -0.9914448613738106
  outer loop
    vertex 93.50000000000001 -5.345908023787481e-16 56.91938003559742
    vertex 94.01763809020505 2.499999999999999 56.85123168817556
    vertex 94.01763809020505 -5.323108957049254e-16 56.85123168817556
  endloop
endfacet
facet normal -1.6830966079056017e-49 3.505116556259197e-17 -1.0
  outer loop
    vertex 93.50000000000001 2.499999999999999 56.91938003559742
    vertex 11.999999999999998 -5.345908023787485e-16 56.91938003559742
    vertex 11.999999999999998 2.499999999999999 56.91938003559742
  endloop
endfacet
facet normal -1.6830966079056017e-49 3.505116556259197e-17 -1.0
  outer loop
    vertex 11.999999999999998 -5.345908023787485e-16 56.91938003559742
    vertex 93.50000000000001 2.499999999999999 56.91938003559742
    vertex 93.50000000000001 -5.345908023787481e-16 56.91938003559742
  endloop
endfacet
facet normal 0.13052619222005216 3.157232013736821e-17 -0.9914448613738104
  outer loop
    vertex 11.999999999999998 2.499999999999999 56.91938003559742
    vertex 11.482361909794959 -5.317190475079106e-16 56.85123168817556
    vertex 11.482361909794959 2.499999999999999 56.85123168817556
  endloop
endfacet
facet normal 0.13052619222005216 3.157232013736821e-17 -0.9914448613738104
  outer loop
    vertex 11.482361909794959 -5.317190475079106e-16 56.85123168817556
    vertex 11.999999999999998 2.499999999999999 56.91938003559742
    vertex 11.999999999999998 -5.345908023787485e-16 56.91938003559742
  endloop
endfacet
facet normal 0.32143946530316553 2.5362315948879857e-17 -0.9469301294951044
  outer loop
    vertex 11.482361909794959 2.499999999999999 56.85123168817556
    vertex 11.23463313526982 -5.281754062157876e-16 56.76713910061999
    vertex 11.23463313526982 2.4999999999999996 56.76713910061999
  endloop
endfacet
facet normal 0.32143946530316553 2.5362315948879857e-17 -0.9469301294951044
  outer loop
    vertex 11.23463313526982 -5.281754062157876e-16 56.76713910061999
    vertex 11.482361909794959 2.499999999999999 56.85123168817556
    vertex 11.482361909794959 -5.317190475079106e-16 56.85123168817556
  endloop
endfacet
facet normal 0.44228869021898326 2.0664451771429077e-17 -0.8968727415326974
  outer loop
    vertex 11.23463313526982 2.4999999999999996 56.76713910061999
    vertex 11.0 -5.232994882440449e-16 56.6514308431663
    vertex 11.0 2.4999999999999996 56.6514308431663
  endloop
endfacet
facet normal 0.44228869021898326 2.0664451771429077e-17 -0.8968727415326974
  outer loop
    vertex 11.0 -5.232994882440449e-16 56.6514308431663
    vertex 11.23463313526982 2.4999999999999996 56.76713910061999
    vertex 11.23463313526982 -5.281754062157876e-16 56.76713910061999
  endloop
endfacet
facet normal 0.5555702330196023 1.5613013094899085e-17 -0.8314696123025453
  outer loop
    vertex 11.0 2.4999999999999996 56.6514308431663
    vertex 10.78247714198256 -5.171747219010388e-16 56.506086716179894
    vertex 10.78247714198256 2.4999999999999996 56.506086716179894
  endloop
endfacet
facet normal 0.5555702330196023 1.5613013094899085e-17 -0.8314696123025453
  outer loop
    vertex 10.78247714198256 -5.171747219010388e-16 56.506086716179894
    vertex 11.0 2.4999999999999996 56.6514308431663
    vertex 11.0 -5.232994882440449e-16 56.6514308431663
  endloop
endfacet
facet normal 0.6593458151000882 1.0294431435570039e-17 -0.7518398074789607
  outer loop
    vertex 10.78247714198256 2.4999999999999996 56.506086716179894
    vertex 10.585786437626904 -5.099059036370045e-16 56.33359359797051
    vertex 10.585786437626904 2.4999999999999996 56.33359359797051
  endloop
endfacet
facet normal 0.6593458151000882 1.0294431435570039e-17 -0.7518398074789607
  outer loop
    vertex 10.585786437626904 -5.099059036370045e-16 56.33359359797051
    vertex 10.78247714198256 2.4999999999999996 56.506086716179894
    vertex 10.78247714198256 -5.171747219010388e-16 56.506086716179894
  endloop
endfacet
facet normal 0.7518398074789698 4.799709200225368e-18 -0.6593458151000775
  outer loop
    vertex 10.41329331941753 -5.016174049477364e-16 56.13690289361486
    vertex 10.585786437626904 2.4999999999999996 56.33359359797051
    vertex 10.585786437626904 -5.099059036370045e-16 56.33359359797051
  endloop
endfacet
facet normal 0.7518398074789698 4.799709200225368e-18 -0.6593458151000775
  outer loop
    vertex 10.585786437626904 2.4999999999999996 56.33359359797051
    vertex 10.41329331941753 -5.016174049477364e-16 56.13690289361486
    vertex 10.41329331941753 2.4999999999999996 56.13690289361486
  endloop
endfacet
facet normal 0.8314696123025453 -7.771373902679722e-19 -0.5555702330196023
  outer loop
    vertex 10.267949192431123 -4.92451044343814e-16 55.91938003559742
    vertex 10.41329331941753 2.4999999999999996 56.13690289361486
    vertex 10.41329331941753 -5.016174049477364e-16 56.13690289361486
  endloop
endfacet
facet normal 0.8314696123025453 -7.771373902679722e-19 -0.5555702330196023
  outer loop
    vertex 10.41329331941753 2.4999999999999996 56.13690289361486
    vertex 10.267949192431123 -4.92451044343814e-16 55.91938003559742
    vertex 10.267949192431123 2.4999999999999996 55.91938003559742
  endloop
endfacet
facet normal 0.8968727415326856 -6.340686944549888e-18 -0.44228869021900696
  outer loop
    vertex 10.152240934977428 -4.825636607965657e-16 55.6847469003276
    vertex 10.267949192431123 2.4999999999999996 55.91938003559742
    vertex 10.267949192431123 -4.92451044343814e-16 55.91938003559742
  endloop
endfacet
facet normal 0.8968727415326856 -6.340686944549888e-18 -0.44228869021900696
  outer loop
    vertex 10.267949192431123 2.4999999999999996 55.91938003559742
    vertex 10.152240934977428 -4.825636607965657e-16 55.6847469003276
    vertex 10.152240934977428 2.4999999999999996 55.6847469003276
  endloop
endfacet
facet normal 0.9469301294951056 -1.1795745587240514e-17 -0.32143946530316236
  outer loop
    vertex 10.068148347421864 -4.721244301797856e-16 55.43701812580247
    vertex 10.152240934977428 2.4999999999999996 55.6847469003276
    vertex 10.152240934977428 -4.825636607965657e-16 55.6847469003276
  endloop
endfacet
facet normal 0.9469301294951056 -1.1795745587240514e-17 -0.32143946530316236
  outer loop
    vertex 10.152240934977428 2.4999999999999996 55.6847469003276
    vertex 10.068148347421864 -4.721244301797856e-16 55.43701812580247
    vertex 10.068148347421864 2.4999999999999996 55.43701812580247
  endloop
endfacet
facet normal 0.9914448613738106 -1.9571638865341387e-17 -0.13052619222005077
  outer loop
    vertex 10.000000000000002 -4.503112863088796e-16 54.91938003559742
    vertex 10.068148347421864 2.4999999999999996 55.43701812580247
    vertex 10.068148347421864 -4.721244301797856e-16 55.43701812580247
  endloop
endfacet
facet normal 0.9914448613738106 -1.9571638865341387e-17 -0.13052619222005077
  outer loop
    vertex 10.068148347421864 2.4999999999999996 55.43701812580247
    vertex 10.000000000000002 -4.503112863088796e-16 54.91938003559742
    vertex 10.000000000000002 2.4999999999999996 54.91938003559742
  endloop
endfacet
facet normal 1.0 -2.4355095255263918e-17 -6.976768273200499e-17
  outer loop
    vertex 9.999999999999998 3.122786718766189e-15 14.499999999999998
    vertex 10.000000000000002 2.4999999999999996 54.91938003559742
    vertex 10.000000000000002 -4.503112863088796e-16 54.91938003559742
  endloop
endfacet
facet normal 1.0 -2.4355095255263918e-17 -6.976768273200499e-17
  outer loop
    vertex 10.000000000000002 2.4999999999999996 54.91938003559742
    vertex 9.999999999999998 3.122786718766189e-15 14.499999999999998
    vertex 9.999999999999998 2.500000000000003 14.499999999999998
  endloop
endfacet
facet normal 0.9914448613738105 -2.872182921286081e-17 0.13052619222005143
  outer loop
    vertex 10.068148347421863 3.162803258500029e-15 13.982361909794957
    vertex 9.999999999999998 2.500000000000003 14.499999999999998
    vertex 9.999999999999998 3.122786718766189e-15 14.499999999999998
  endloop
endfacet
facet normal 0.9914448613738105 -2.872182921286081e-17 0.13052619222005143
  outer loop
    vertex 9.999999999999998 2.500000000000003 14.499999999999998
    vertex 10.068148347421863 3.162803258500029e-15 13.982361909794957
    vertex 10.068148347421863 2.500000000000003 13.982361909794957
  endloop
endfacet
facet normal 0.9469301294951056 -3.4329401420624874e-17 0.32143946530316236
  outer loop
    vertex 10.152240934977424 3.1784505410646026e-15 13.734633135269819
    vertex 10.068148347421863 2.500000000000003 13.982361909794957
    vertex 10.068148347421863 3.162803258500029e-15 13.982361909794957
  endloop
endfacet
facet normal 0.9469301294951056 -3.4329401420624874e-17 0.32143946530316236
  outer loop
    vertex 10.068148347421863 2.500000000000003 13.982361909794957
    vertex 10.152240934977424 3.1784505410646026e-15 13.734633135269819
    vertex 10.152240934977424 2.500000000000003 13.734633135269819
  endloop
endfacet
facet normal 0.8968727415326899 -3.7346155159206424e-17 0.44228869021899847
  outer loop
    vertex 10.267949192431121 3.1908163375660264e-15 13.499999999999998
    vertex 10.152240934977424 2.500000000000003 13.734633135269819
    vertex 10.152240934977424 3.1784505410646026e-15 13.734633135269819
  endloop
endfacet
facet normal 0.8968727415326899 -3.7346155159206424e-17 0.44228869021899847
  outer loop
    vertex 10.152240934977424 2.500000000000003 13.734633135269819
    vertex 10.267949192431121 3.1908163375660264e-15 13.499999999999998
    vertex 10.267949192431121 2.500000000000003 13.499999999999998
  endloop
endfacet
facet normal 0.8314696123025428 -3.972390582870379e-17 0.555570233019606
  outer loop
    vertex 10.413293319417528 3.1996890657977138e-15 13.282477141982557
    vertex 10.267949192431121 2.500000000000003 13.499999999999998
    vertex 10.267949192431121 3.1908163375660264e-15 13.499999999999998
  endloop
endfacet
facet normal 0.8314696123025428 -3.972390582870379e-17 0.555570233019606
  outer loop
    vertex 10.267949192431121 2.500000000000003 13.499999999999998
    vertex 10.413293319417528 3.1996890657977138e-15 13.282477141982557
    vertex 10.413293319417528 2.500000000000003 13.282477141982557
  endloop
endfacet
facet normal 0.7518398074789794 -4.142196945592442e-17 0.6593458151000668
  outer loop
    vertex 10.585786437626904 3.2049169109196353e-15 13.085786437626902
    vertex 10.413293319417528 2.500000000000003 13.282477141982557
    vertex 10.413293319417528 3.1996890657977138e-15 13.282477141982557
  endloop
endfacet
facet normal 0.7518398074789794 -4.142196945592442e-17 0.6593458151000668
  outer loop
    vertex 10.413293319417528 2.500000000000003 13.282477141982557
    vertex 10.585786437626904 3.2049169109196353e-15 13.085786437626902
    vertex 10.585786437626904 2.500000000000003 13.085786437626902
  endloop
endfacet
facet normal 0.6593458151000665 -4.241129170141475e-17 0.7518398074789797
  outer loop
    vertex 10.782477141982556 3.206410423052323e-15 12.91329331941753
    vertex 10.585786437626904 2.500000000000003 13.085786437626902
    vertex 10.585786437626904 3.2049169109196353e-15 13.085786437626902
  endloop
endfacet
facet normal 0.6593458151000665 -4.241129170141475e-17 0.7518398074789797
  outer loop
    vertex 10.585786437626904 2.500000000000003 13.085786437626902
    vertex 10.782477141982556 3.206410423052323e-15 12.91329331941753
    vertex 10.782477141982556 2.500000000000003 12.91329331941753
  endloop
endfacet
facet normal 0.5555702330196072 -4.2674944987262265e-17 0.831469612302542
  outer loop
    vertex 10.999999999999998 3.204144047789106e-15 12.76794919243112
    vertex 10.782477141982556 2.500000000000003 12.91329331941753
    vertex 10.782477141982556 3.206410423052323e-15 12.91329331941753
  endloop
endfacet
facet normal 0.5555702330196072 -4.2674944987262265e-17 0.831469612302542
  outer loop
    vertex 10.782477141982556 2.500000000000003 12.91329331941753
    vertex 10.999999999999998 3.204144047789106e-15 12.76794919243112
    vertex 10.999999999999998 2.500000000000003 12.76794919243112
  endloop
endfacet
facet normal 0.4422886902190027 -4.2208418132647705e-17 0.8968727415326877
  outer loop
    vertex 11.234633135269817 3.1981565634390972e-15 12.652240934977424
    vertex 10.999999999999998 2.500000000000003 12.76794919243112
    vertex 10.999999999999998 3.204144047789106e-15 12.76794919243112
  endloop
endfacet
facet normal 0.4422886902190027 -4.2208418132647705e-17 0.8968727415326877
  outer loop
    vertex 10.999999999999998 2.500000000000003 12.76794919243112
    vertex 11.234633135269817 3.1981565634390972e-15 12.652240934977424
    vertex 11.234633135269817 2.500000000000003 12.652240934977424
  endloop
endfacet
facet normal 0.32143946530315903 -4.101969354139917e-17 0.9469301294951066
  outer loop
    vertex 11.482361909794957 3.1885504175195685e-15 12.568148347421861
    vertex 11.234633135269817 2.500000000000003 12.652240934977424
    vertex 11.234633135269817 3.1981565634390972e-15 12.652240934977424
  endloop
endfacet
facet normal 0.32143946530315903 -4.101969354139917e-17 0.9469301294951066
  outer loop
    vertex 11.234633135269817 2.500000000000003 12.652240934977424
    vertex 11.482361909794957 3.1885504175195685e-15 12.568148347421861
    vertex 11.482361909794957 2.500000000000003 12.568148347421861
  endloop
endfacet
facet normal 0.13052619222005216 -3.7930275827020733e-17 0.9914448613738104
  outer loop
    vertex 11.999999999999996 3.159198700244198e-15 12.499999999999998
    vertex 11.482361909794957 2.500000000000003 12.568148347421861
    vertex 11.482361909794957 3.1885504175195685e-15 12.568148347421861
  endloop
endfacet
facet normal 0.13052619222005216 -3.7930275827020733e-17 0.9914448613738104
  outer loop
    vertex 11.482361909794957 2.500000000000003 12.568148347421861
    vertex 11.999999999999996 3.159198700244198e-15 12.499999999999998
    vertex 11.999999999999996 2.500000000000003 12.499999999999998
  endloop
endfacet
facet normal -1.730040786839201e-17 -3.505116556259197e-17 1.0
  outer loop
    vertex 93.50000000000001 -1.003042541877941e-15 12.5
    vertex 11.999999999999996 2.500000000000003 12.499999999999998
    vertex 11.999999999999996 3.159198700244198e-15 12.499999999999998
  endloop
endfacet
facet normal -1.730040786839201e-17 -3.505116556259197e-17 1.0
  outer loop
    vertex 11.999999999999996 2.500000000000003 12.499999999999998
    vertex 93.50000000000001 -1.003042541877941e-15 12.5
    vertex 93.50000000000001 2.499999999999999 12.5
  endloop
endfacet
facet normal -0.13052619222005077 -3.157232013736826e-17 0.9914448613738106
  outer loop
    vertex 94.01763809020505 -1.0270409714131775e-15 12.568148347421863
    vertex 93.50000000000001 2.499999999999999 12.5
    vertex 93.50000000000001 -1.003042541877941e-15 12.5
  endloop
endfacet
facet normal -0.13052619222005077 -3.157232013736826e-17 0.9914448613738106
  outer loop
    vertex 93.50000000000001 2.499999999999999 12.5
    vertex 94.01763809020505 -1.0270409714131775e-15 12.568148347421863
    vertex 94.01763809020505 2.499999999999999 12.568148347421863
  endloop
endfacet
facet normal -0.32143946530316236 -2.536231594887997e-17 0.9469301294951056
  outer loop
    vertex 94.2653668647302 -1.0369267614014038e-15 12.652240934977426
    vertex 94.01763809020505 2.499999999999999 12.568148347421863
    vertex 94.01763809020505 -1.0270409714131775e-15 12.568148347421863
  endloop
endfacet
facet normal -0.32143946530316236 -2.536231594887997e-17 0.9469301294951056
  outer loop
    vertex 94.01763809020505 2.499999999999999 12.568148347421863
    vertex 94.2653668647302 -1.0369267614014038e-15 12.652240934977426
    vertex 94.2653668647302 2.499999999999999 12.652240934977426
  endloop
endfacet
facet normal -0.44228869021901124 -2.0664451771427906e-17 0.8968727415326834
  outer loop
    vertex 94.50000000000001 -1.0451696647042559e-15 12.767949192431123
    vertex 94.2653668647302 2.499999999999999 12.652240934977426
    vertex 94.2653668647302 -1.0369267614014038e-15 12.652240934977426
  endloop
endfacet
facet normal -0.44228869021901124 -2.0664451771427906e-17 0.8968727415326834
  outer loop
    vertex 94.2653668647302 2.499999999999999 12.652240934977426
    vertex 94.50000000000001 -1.0451696647042559e-15 12.767949192431123
    vertex 94.50000000000001 2.499999999999999 12.767949192431123
  endloop
endfacet
facet normal -0.5555702330196023 -1.5613013094899085e-17 0.8314696123025453
  outer loop
    vertex 94.71752285801745 -1.0516286429608576e-15 12.91329331941753
    vertex 94.50000000000001 2.499999999999999 12.767949192431123
    vertex 94.50000000000001 -1.0451696647042559e-15 12.767949192431123
  endloop
endfacet
facet normal -0.5555702330196023 -1.5613013094899085e-17 0.8314696123025453
  outer loop
    vertex 94.50000000000001 2.499999999999999 12.767949192431123
    vertex 94.71752285801745 -1.0516286429608576e-15 12.91329331941753
    vertex 94.71752285801745 2.499999999999999 12.91329331941753
  endloop
endfacet
facet normal -0.6593458151000744 -1.0294431435570794e-17 0.7518398074789725
  outer loop
    vertex 94.91421356237309 -1.056193181262471e-15 13.085786437626902
    vertex 94.71752285801745 2.499999999999999 12.91329331941753
    vertex 94.71752285801745 -1.0516286429608576e-15 12.91329331941753
  endloop
endfacet
facet normal -0.6593458151000744 -1.0294431435570794e-17 0.7518398074789725
  outer loop
    vertex 94.71752285801745 2.499999999999999 12.91329331941753
    vertex 94.91421356237309 -1.056193181262471e-15 13.085786437626902
    vertex 94.91421356237309 2.499999999999999 13.085786437626902
  endloop
endfacet
facet normal -0.7518398074789607 -4.799709200225971e-18 0.6593458151000882
  outer loop
    vertex 95.08670668058248 2.499999999999999 13.282477141982557
    vertex 94.91421356237309 -1.056193181262471e-15 13.085786437626902
    vertex 95.08670668058248 -1.058785179093227e-15 13.282477141982557
  endloop
endfacet
facet normal -0.7518398074789607 -4.799709200225971e-18 0.6593458151000882
  outer loop
    vertex 94.91421356237309 -1.056193181262471e-15 13.085786437626902
    vertex 95.08670668058248 2.499999999999999 13.282477141982557
    vertex 94.91421356237309 2.499999999999999 13.085786437626902
  endloop
endfacet
facet normal -0.8314696123025453 7.771373902679722e-19 0.5555702330196023
  outer loop
    vertex 95.23205080756888 2.499999999999999 13.499999999999998
    vertex 95.08670668058248 -1.058785179093227e-15 13.282477141982557
    vertex 95.23205080756888 -1.0593602866516032e-15 13.499999999999998
  endloop
endfacet
facet normal -0.8314696123025453 7.771373902679722e-19 0.5555702330196023
  outer loop
    vertex 95.08670668058248 -1.058785179093227e-15 13.282477141982557
    vertex 95.23205080756888 2.499999999999999 13.499999999999998
    vertex 95.08670668058248 2.499999999999999 13.282477141982557
  endloop
endfacet
facet normal -0.8968727415326961 6.340686944550906e-18 0.44228869021898526
  outer loop
    vertex 95.34775906502257 -1.0579086636878262e-15 13.734633135269817
    vertex 95.23205080756888 2.499999999999999 13.499999999999998
    vertex 95.23205080756888 -1.0593602866516032e-15 13.499999999999998
  endloop
endfacet
facet normal -0.8968727415326961 6.340686944550906e-18 0.44228869021898526
  outer loop
    vertex 95.23205080756888 2.499999999999999 13.499999999999998
    vertex 95.34775906502257 -1.0579086636878262e-15 13.734633135269817
    vertex 95.34775906502257 2.499999999999999 13.734633135269817
  endloop
endfacet
facet normal -0.946930129495105 1.1795745587240445e-17 0.32143946530316386
  outer loop
    vertex 95.43185165257815 -1.054455147873272e-15 13.982361909794957
    vertex 95.34775906502257 2.499999999999999 13.734633135269817
    vertex 95.34775906502257 -1.0579086636878262e-15 13.734633135269817
  endloop
endfacet
facet normal -0.946930129495105 1.1795745587240445e-17 0.32143946530316386
  outer loop
    vertex 95.34775906502257 2.499999999999999 13.734633135269817
    vertex 95.43185165257815 -1.054455147873272e-15 13.982361909794957
    vertex 95.43185165257815 2.499999999999999 13.982361909794957
  endloop
endfacet
facet normal -0.9914448613738104 1.9571638865341332e-17 0.13052619222005216
  outer loop
    vertex 95.5 -1.0418120420290959e-15 14.499999999999996
    vertex 95.43185165257815 2.499999999999999 13.982361909794957
    vertex 95.43185165257815 -1.054455147873272e-15 13.982361909794957
  endloop
endfacet
facet normal -0.9914448613738104 1.9571638865341332e-17 0.13052619222005216
  outer loop
    vertex 95.43185165257815 2.499999999999999 13.982361909794957
    vertex 95.5 -1.0418120420290959e-15 14.499999999999996
    vertex 95.5 2.499999999999999 14.499999999999996
  endloop
endfacet
endsolid cover
