solid watchWinder_Rubber-2X
facet normal 4.1214927040449177e-16 -0.7071067811865462 0.7071067811865488
  outer loop
    vertex -28.999999999999986 -25.841653248808054 17.518565685158276
    vertex 29.00000000000001 -27.518565685158343 15.841653248807962
    vertex 29.00000000000001 -25.841653248808054 17.51856568515824
  endloop
endfacet
facet normal 4.1214927040449177e-16 -0.7071067811865462 0.7071067811865488
  outer loop
    vertex 29.00000000000001 -27.518565685158343 15.841653248807962
    vertex -28.999999999999986 -25.841653248808054 17.518565685158276
    vertex -28.999999999999986 -27.518565685158343 15.841653248807996
  endloop
endfacet
facet normal 4.605553510752951e-16 0.6129070536529768 0.7901550123756901
  outer loop
    vertex -28.999999999999986 24.06275561301298 19.086874914786026
    vertex 29.00000000000001 22.188893274040797 20.54039153765422
    vertex 29.00000000000001 24.06275561301298 19.08687491478599
  endloop
endfacet
facet normal 4.605553510752951e-16 0.6129070536529768 0.7901550123756901
  outer loop
    vertex 29.00000000000001 22.188893274040797 20.54039153765422
    vertex -28.999999999999986 24.06275561301298 19.086874914786026
    vertex -28.999999999999986 22.188893274040797 20.540391537654255
  endloop
endfacet
facet normal 5.193383780787073e-16 0.4539904997395484 0.8910065241883671
  outer loop
    vertex -28.999999999999986 18.1862011973397 23.080577171655822
    vertex 29.00000000000001 16.073168256581436 24.15722123059218
    vertex 29.00000000000001 18.1862011973397 23.08057717165579
  endloop
endfacet
facet normal 5.193383780787073e-16 0.4539904997395484 0.8910065241883671
  outer loop
    vertex 29.00000000000001 16.073168256581436 24.15722123059218
    vertex -28.999999999999986 18.1862011973397 23.080577171655822
    vertex -28.999999999999986 16.073168256581436 24.157221230592217
  endloop
endfacet
facet normal 3.8545692115356813e-16 0.750111069630459 0.6613118653236525
  outer loop
    vertex -28.999999999999986 27.51856568515822 15.841653248807976
    vertex 29.000000000000004 29.08687491478598 14.062755613012982
    vertex -28.999999999999986 29.08687491478598 14.062755613013016
  endloop
endfacet
facet normal 3.8545692115356813e-16 0.750111069630459 0.6613118653236525
  outer loop
    vertex 29.000000000000004 29.08687491478598 14.062755613012982
    vertex -28.999999999999986 27.51856568515822 15.841653248807976
    vertex 29.00000000000001 27.51856568515822 15.841653248807942
  endloop
endfacet
facet normal 5.825794782055129e-16 -0.031410759078130644 0.9995065603657316
  outer loop
    vertex -28.999999999999986 -5.0759396685862156e-14 27.74999999999999
    vertex 29.000000000000014 -2.3703421122316324 27.6755089981672
    vertex 29.000000000000014 -5.0759396685862156e-14 27.749999999999954
  endloop
endfacet
facet normal 5.825794782055129e-16 -0.031410759078130644 0.9995065603657316
  outer loop
    vertex 29.000000000000014 -2.3703421122316324 27.6755089981672
    vertex -28.999999999999986 -5.0759396685862156e-14 27.74999999999999
    vertex -28.999999999999986 -2.3703421122316324 27.675508998167235
  endloop
endfacet
facet normal 5.597235841263647e-16 0.27899110603923066 0.9602936856769426
  outer loop
    vertex -28.999999999999986 11.66539153765421 25.90238349014203
    vertex 29.000000000000014 9.38804324047321 26.56401433260578
    vertex 29.000000000000014 11.66539153765421 25.902383490141993
  endloop
endfacet
facet normal 5.597235841263647e-16 0.27899110603923066 0.9602936856769426
  outer loop
    vertex 29.000000000000014 9.38804324047321 26.56401433260578
    vertex -28.999999999999986 11.66539153765421 25.90238349014203
    vertex -28.999999999999986 9.38804324047321 26.564014332605815
  endloop
endfacet
facet normal 5.802803031602824e-16 0.09410831331851179 0.9955619646030802
  outer loop
    vertex -28.999999999999986 4.731329567052434 27.452329974621527
    vertex 29.000000000000014 2.370342112231525 27.6755089981672
    vertex 29.000000000000014 4.731329567052434 27.45232997462149
  endloop
endfacet
facet normal 5.802803031602824e-16 0.09410831331851179 0.9955619646030802
  outer loop
    vertex 29.000000000000014 2.370342112231525 27.6755089981672
    vertex -28.999999999999986 4.731329567052434 27.452329974621527
    vertex -28.999999999999986 2.370342112231525 27.675508998167235
  endloop
endfacet
facet normal 5.484084338880014e-16 -0.3387379202452936 0.9408807689542249
  outer loop
    vertex -28.999999999999986 -11.66539153765432 25.902383490142032
    vertex 29.000000000000014 -13.896701863846648 25.09906234228144
    vertex 29.000000000000014 -11.66539153765432 25.902383490142
  endloop
endfacet
facet normal 5.484084338880014e-16 -0.3387379202452936 0.9408807689542249
  outer loop
    vertex 29.000000000000014 -13.896701863846648 25.09906234228144
    vertex -28.999999999999986 -11.66539153765432 25.902383490142032
    vertex -28.999999999999986 -13.896701863846648 25.09906234228147
  endloop
endfacet
facet normal 2.967034876332697e-16 0.8607420270039448 0.5090414157503694
  outer loop
    vertex -28.999999999999986 31.873379187701005 10.227461510457113
    vertex 29.000000000000004 33.08057717165578 8.186201197339704
    vertex -28.999999999999996 33.08057717165578 8.186201197339738
  endloop
endfacet
facet normal 2.967034876332697e-16 0.8607420270039448 0.5090414157503694
  outer loop
    vertex 29.000000000000004 33.08057717165578 8.186201197339704
    vertex -28.999999999999986 31.873379187701005 10.227461510457113
    vertex 29.000000000000004 31.873379187701005 10.22746151045708
  endloop
endfacet
facet normal 5.3492896610506415e-16 -0.39714789063477995 0.9177546256839814
  outer loop
    vertex -28.999999999999986 -13.896701863846648 25.09906234228147
    vertex 29.00000000000001 -16.073168256581557 24.157221230592185
    vertex 29.000000000000014 -13.896701863846648 25.09906234228144
  endloop
endfacet
facet normal 5.3492896610506415e-16 -0.39714789063477995 0.9177546256839814
  outer loop
    vertex 29.00000000000001 -16.073168256581557 24.157221230592185
    vertex -28.999999999999986 -13.896701863846648 25.09906234228147
    vertex -28.999999999999986 -16.073168256581557 24.157221230592217
  endloop
endfacet
facet normal 3.572433495333684e-16 -0.7901550123756897 0.6129070536529774
  outer loop
    vertex 29.000000000000004 -29.086874914786105 14.062755613013001
    vertex -28.999999999999986 -30.540391537654333 12.188893274040856
    vertex 29.000000000000004 -30.540391537654333 12.188893274040822
  endloop
endfacet
facet normal 3.572433495333684e-16 -0.7901550123756897 0.6129070536529774
  outer loop
    vertex -28.999999999999986 -30.540391537654333 12.188893274040856
    vertex 29.000000000000004 -29.086874914786105 14.062755613013001
    vertex -28.999999999999986 -29.086874914786105 14.062755613013035
  endloop
endfacet
facet normal 5.484084338880013e-16 0.338737920245294 0.9408807689542247
  outer loop
    vertex -28.999999999999986 13.896701863846532 25.09906234228147
    vertex 29.000000000000014 11.66539153765421 25.902383490141993
    vertex 29.000000000000014 13.896701863846532 25.099062342281435
  endloop
endfacet
facet normal 5.484084338880013e-16 0.338737920245294 0.9408807689542247
  outer loop
    vertex 29.000000000000014 11.66539153765421 25.902383490141993
    vertex -28.999999999999986 13.896701863846532 25.09906234228147
    vertex -28.999999999999986 11.66539153765421 25.90238349014203
  endloop
endfacet
facet normal 3.276199016215217e-16 0.8270805742745617 0.5620833778521308
  outer loop
    vertex -28.999999999999986 30.540391537654198 12.188893274040854
    vertex 29.000000000000004 31.873379187701005 10.22746151045708
    vertex -28.999999999999986 31.873379187701005 10.227461510457113
  endloop
endfacet
facet normal 3.276199016215217e-16 0.8270805742745617 0.5620833778521308
  outer loop
    vertex 29.000000000000004 31.873379187701005 10.22746151045708
    vertex -28.999999999999986 30.540391537654198 12.188893274040854
    vertex 29.000000000000004 30.540391537654198 12.18889327404082
  endloop
endfacet
facet normal 5.3492896610506415e-16 0.3971478906347802 0.9177546256839814
  outer loop
    vertex -28.999999999999986 16.073168256581436 24.157221230592217
    vertex 29.000000000000014 13.896701863846532 25.099062342281435
    vertex 29.00000000000001 16.073168256581436 24.15722123059218
  endloop
endfacet
facet normal 5.3492896610506415e-16 0.3971478906347802 0.9177546256839814
  outer loop
    vertex 29.000000000000014 13.896701863846532 25.099062342281435
    vertex -28.999999999999986 16.073168256581436 24.157221230592217
    vertex -28.999999999999986 13.896701863846532 25.09906234228147
  endloop
endfacet
facet normal 5.802803031602824e-16 -0.09410831331851162 0.9955619646030803
  outer loop
    vertex -28.999999999999986 -2.3703421122316324 27.675508998167235
    vertex 29.000000000000014 -4.731329567052541 27.45232997462149
    vertex 29.000000000000014 -2.3703421122316324 27.6755089981672
  endloop
endfacet
facet normal 5.802803031602824e-16 -0.09410831331851162 0.9955619646030803
  outer loop
    vertex 29.000000000000014 -4.731329567052541 27.45232997462149
    vertex -28.999999999999986 -2.3703421122316324 27.675508998167235
    vertex -28.999999999999986 -4.731329567052541 27.452329974621527
  endloop
endfacet
facet normal 5.756910268633312e-16 -0.15643446504023176 0.9876883405951375
  outer loop
    vertex -28.999999999999986 -4.731329567052541 27.452329974621527
    vertex 29.000000000000014 -7.0736446256111565 27.08134371500795
    vertex 29.000000000000014 -4.731329567052541 27.45232997462149
  endloop
endfacet
facet normal 5.756910268633312e-16 -0.15643446504023176 0.9876883405951375
  outer loop
    vertex 29.000000000000014 -7.0736446256111565 27.08134371500795
    vertex -28.999999999999986 -4.731329567052541 27.452329974621527
    vertex -28.999999999999986 -7.0736446256111565 27.081343715007986
  endloop
endfacet
facet normal 3.2761990162152056e-16 -0.8270805742745629 0.5620833778521289
  outer loop
    vertex 29.000000000000004 -30.540391537654333 12.188893274040822
    vertex -28.999999999999986 -31.87337918770113 10.22746151045712
    vertex 29.000000000000004 -31.87337918770113 10.227461510457086
  endloop
endfacet
facet normal 3.2761990162152056e-16 -0.8270805742745629 0.5620833778521289
  outer loop
    vertex -28.999999999999986 -31.87337918770113 10.22746151045712
    vertex 29.000000000000004 -30.540391537654333 12.188893274040822
    vertex -28.999999999999986 -30.540391537654333 12.188893274040856
  endloop
endfacet
facet normal 2.64616120530262e-16 0.8910065241883671 0.4539904997395482
  outer loop
    vertex -28.999999999999996 33.08057717165578 8.186201197339738
    vertex 29.000000000000004 34.15722123059218 6.073168256581442
    vertex -28.999999999999996 34.15722123059218 6.073168256581476
  endloop
endfacet
facet normal 2.64616120530262e-16 0.8910065241883671 0.4539904997395482
  outer loop
    vertex 29.000000000000004 34.15722123059218 6.073168256581442
    vertex -28.999999999999996 33.08057717165578 8.186201197339738
    vertex 29.000000000000004 33.08057717165578 8.186201197339704
  endloop
endfacet
facet normal 5.756910268633313e-16 0.15643446504023154 0.9876883405951378
  outer loop
    vertex -28.999999999999986 7.073644625611055 27.081343715007986
    vertex 29.000000000000014 4.731329567052434 27.45232997462149
    vertex 29.000000000000014 7.073644625611055 27.08134371500795
  endloop
endfacet
facet normal 5.756910268633313e-16 0.15643446504023154 0.9876883405951378
  outer loop
    vertex 29.000000000000014 4.731329567052434 27.45232997462149
    vertex -28.999999999999986 7.073644625611055 27.081343715007986
    vertex -28.999999999999986 4.731329567052434 27.452329974621527
  endloop
endfacet
facet normal 4.820780458094029e-16 0.5620833778521314 0.8270805742745613
  outer loop
    vertex -28.999999999999986 22.188893274040797 20.540391537654255
    vertex 29.00000000000001 20.227461510457072 21.873379187701016
    vertex 29.00000000000001 22.188893274040797 20.54039153765422
  endloop
endfacet
facet normal 4.820780458094029e-16 0.5620833778521314 0.8270805742745613
  outer loop
    vertex 29.00000000000001 20.227461510457072 21.873379187701016
    vertex -28.999999999999986 22.188893274040797 20.540391537654255
    vertex -28.999999999999986 20.227461510457072 21.87337918770105
  endloop
endfacet
facet normal 5.016981987372122e-16 0.509041415750368 0.8607420270039458
  outer loop
    vertex -28.999999999999986 20.227461510457072 21.87337918770105
    vertex 29.00000000000001 18.1862011973397 23.08057717165579
    vertex 29.00000000000001 20.227461510457072 21.873379187701016
  endloop
endfacet
facet normal 5.016981987372122e-16 0.509041415750368 0.8607420270039458
  outer loop
    vertex 29.00000000000001 18.1862011973397 23.08057717165579
    vertex -28.999999999999986 20.227461510457072 21.87337918770105
    vertex -28.999999999999986 18.1862011973397 23.080577171655822
  endloop
endfacet
facet normal 5.688297610915634e-16 0.21814324139654198 0.9759167619387477
  outer loop
    vertex -28.999999999999986 9.38804324047321 26.564014332605815
    vertex 29.000000000000014 7.073644625611055 27.08134371500795
    vertex 29.000000000000014 9.38804324047321 26.56401433260578
  endloop
endfacet
facet normal 5.688297610915634e-16 0.21814324139654198 0.9759167619387477
  outer loop
    vertex 29.000000000000014 7.073644625611055 27.08134371500795
    vertex -28.999999999999986 9.38804324047321 26.564014332605815
    vertex -28.999999999999986 7.073644625611055 27.081343715007986
  endloop
endfacet
facet normal 5.688297610915635e-16 -0.21814324139654112 0.9759167619387478
  outer loop
    vertex -28.999999999999986 -7.0736446256111565 27.081343715007986
    vertex 29.000000000000014 -9.388043240473325 26.56401433260578
    vertex 29.000000000000014 -7.0736446256111565 27.08134371500795
  endloop
endfacet
facet normal 5.688297610915635e-16 -0.21814324139654112 0.9759167619387478
  outer loop
    vertex 29.000000000000014 -9.388043240473325 26.56401433260578
    vertex -28.999999999999986 -7.0736446256111565 27.081343715007986
    vertex -28.999999999999986 -9.388043240473325 26.564014332605815
  endloop
endfacet
facet normal 3.8545692115356823e-16 -0.7501110696304588 0.6613118653236527
  outer loop
    vertex 29.00000000000001 -27.518565685158343 15.841653248807962
    vertex -28.999999999999986 -29.086874914786105 14.062755613013035
    vertex 29.000000000000004 -29.086874914786105 14.062755613013001
  endloop
endfacet
facet normal 3.8545692115356823e-16 -0.7501110696304588 0.6613118653236527
  outer loop
    vertex -28.999999999999986 -29.086874914786105 14.062755613013035
    vertex 29.00000000000001 -27.518565685158343 15.841653248807962
    vertex -28.999999999999986 -27.518565685158343 15.841653248807996
  endloop
endfacet
facet normal 2.646161205302602e-16 -0.8910065241883687 0.4539904997395451
  outer loop
    vertex 29.000000000000004 -33.08057717165592 8.186201197339717
    vertex -28.999999999999996 -34.1572212305923 6.073168256581492
    vertex 29.000000000000004 -34.1572212305923 6.073168256581458
  endloop
endfacet
facet normal 2.646161205302602e-16 -0.8910065241883687 0.4539904997395451
  outer loop
    vertex -28.999999999999996 -34.1572212305923 6.073168256581492
    vertex 29.000000000000004 -33.08057717165592 8.186201197339717
    vertex -28.999999999999996 -33.08057717165592 8.18620119733975
  endloop
endfacet
facet normal 1.9743918514423063e-16 -0.9408807689542253 0.3387379202452919
  outer loop
    vertex 28.999999999999996 -35.09906234228155 3.8967018638465545
    vertex -28.999999999999996 -35.902383490142114 1.6653915376542603
    vertex 28.999999999999996 -35.902383490142114 1.6653915376542263
  endloop
endfacet
facet normal 1.9743918514423063e-16 -0.9408807689542253 0.3387379202452919
  outer loop
    vertex -28.999999999999996 -35.902383490142114 1.6653915376542603
    vertex 28.999999999999996 -35.09906234228155 3.8967018638465545
    vertex -28.999999999999996 -35.09906234228155 3.8967018638465882
  endloop
endfacet
facet normal 5.825794782055129e-16 0.031410759078130984 0.9995065603657316
  outer loop
    vertex -28.999999999999986 2.370342112231525 27.675508998167235
    vertex 29.000000000000014 -5.0759396685862156e-14 27.749999999999954
    vertex 29.000000000000014 2.370342112231525 27.6755089981672
  endloop
endfacet
facet normal 5.825794782055129e-16 0.031410759078130984 0.9995065603657316
  outer loop
    vertex 29.000000000000014 -5.0759396685862156e-14 27.749999999999954
    vertex -28.999999999999986 2.370342112231525 27.675508998167235
    vertex -28.999999999999986 -5.0759396685862156e-14 27.74999999999999
  endloop
endfacet
facet normal 5.597235841263648e-16 -0.2789911060392305 0.9602936856769428
  outer loop
    vertex -28.999999999999986 -9.388043240473325 26.564014332605815
    vertex 29.000000000000014 -11.66539153765432 25.902383490142
    vertex 29.000000000000014 -9.388043240473325 26.56401433260578
  endloop
endfacet
facet normal 5.597235841263648e-16 -0.2789911060392305 0.9602936856769428
  outer loop
    vertex 29.000000000000014 -11.66539153765432 25.902383490142
    vertex -28.999999999999986 -9.388043240473325 26.564014332605815
    vertex -28.999999999999986 -11.66539153765432 25.902383490142032
  endloop
endfacet
facet normal -5.828670879282073e-16 -1.1102230246251548e-16 -1.0
  outer loop
    vertex -28.999999999999996 -36.38622445880474 -3.2338077862615578e-15
    vertex 28.999999999999996 36.38622445880461 -4.511946372076636e-14
    vertex 28.999999999999996 -36.38622445880474 -3.7040098886097573e-14
  endloop
endfacet
facet normal -5.828670879282073e-16 -1.1102230246251548e-16 -1.0
  outer loop
    vertex 28.999999999999996 36.38622445880461 -4.511946372076636e-14
    vertex -28.999999999999996 -36.38622445880474 -3.2338077862615578e-15
    vertex -28.999999999999996 36.38622445880461 -1.1313172620930343e-14
  endloop
endfacet
facet normal 4.82078045809404e-16 -0.5620833778521284 0.8270805742745633
  outer loop
    vertex -28.999999999999986 -20.227461510457186 21.873379187701055
    vertex 29.00000000000001 -22.18889327404092 20.540391537654223
    vertex 29.00000000000001 -20.227461510457186 21.87337918770102
  endloop
endfacet
facet normal 4.82078045809404e-16 -0.5620833778521284 0.8270805742745633
  outer loop
    vertex 29.00000000000001 -22.18889327404092 20.540391537654223
    vertex -28.999999999999986 -20.227461510457186 21.873379187701055
    vertex -28.999999999999986 -22.18889327404092 20.54039153765426
  endloop
endfacet
facet normal -1.0 0.0 5.828670879282073e-16
  outer loop
    vertex -28.999999999999996 -36.38622445880474 -3.2338077862615578e-15
    vertex -28.999999999999996 35.902383490141986 1.6653915376542423
    vertex -28.999999999999996 36.38622445880461 -1.1313172620930343e-14
  endloop
endfacet
facet normal -1.0 0.0 5.828670879282073e-16
  outer loop
    vertex -28.999999999999996 35.902383490141986 1.6653915376542423
    vertex -28.999999999999996 -36.38622445880474 -3.2338077862615578e-15
    vertex -28.999999999999996 35.09906234228143 3.8967018638465722
  endloop
endfacet
facet normal -1.0 0.0 5.828670879282073e-16
  outer loop
    vertex -28.999999999999996 35.09906234228143 3.8967018638465722
    vertex -28.999999999999996 -36.38622445880474 -3.2338077862615578e-15
    vertex -28.999999999999996 34.15722123059218 6.073168256581476
  endloop
endfacet
facet normal -1.0 0.0 5.828670879282073e-16
  outer loop
    vertex -28.999999999999996 34.15722123059218 6.073168256581476
    vertex -28.999999999999996 -36.38622445880474 -3.2338077862615578e-15
    vertex -28.999999999999996 33.08057717165578 8.186201197339738
  endloop
endfacet
facet normal -1.0 0.0 5.828670879282073e-16
  outer loop
    vertex -28.999999999999996 33.08057717165578 8.186201197339738
    vertex -28.999999999999996 -36.38622445880474 -3.2338077862615578e-15
    vertex -28.999999999999986 31.873379187701005 10.227461510457113
  endloop
endfacet
facet normal -1.0 0.0 5.828670879282073e-16
  outer loop
    vertex -28.999999999999986 31.873379187701005 10.227461510457113
    vertex -28.999999999999996 -36.38622445880474 -3.2338077862615578e-15
    vertex -28.999999999999986 30.540391537654198 12.188893274040854
  endloop
endfacet
facet normal -1.0 0.0 5.828670879282073e-16
  outer loop
    vertex -28.999999999999986 30.540391537654198 12.188893274040854
    vertex -28.999999999999996 -36.38622445880474 -3.2338077862615578e-15
    vertex -28.999999999999986 29.08687491478598 14.062755613013016
  endloop
endfacet
facet normal -1.0 0.0 5.828670879282073e-16
  outer loop
    vertex -28.999999999999986 29.08687491478598 14.062755613013016
    vertex -28.999999999999996 -36.38622445880474 -3.2338077862615578e-15
    vertex -28.999999999999986 27.51856568515822 15.841653248807976
  endloop
endfacet
facet normal -1.0 0.0 5.828670879282073e-16
  outer loop
    vertex -28.999999999999986 27.51856568515822 15.841653248807976
    vertex -28.999999999999996 -36.38622445880474 -3.2338077862615578e-15
    vertex -28.999999999999986 25.841653248807933 17.51856568515827
  endloop
endfacet
facet normal -1.0 0.0 5.828670879282073e-16
  outer loop
    vertex -28.999999999999986 25.841653248807933 17.51856568515827
    vertex -28.999999999999996 -36.38622445880474 -3.2338077862615578e-15
    vertex -28.999999999999986 24.06275561301298 19.086874914786026
  endloop
endfacet
facet normal -1.0 0.0 5.828670879282073e-16
  outer loop
    vertex -28.999999999999986 24.06275561301298 19.086874914786026
    vertex -28.999999999999996 -36.38622445880474 -3.2338077862615578e-15
    vertex -28.999999999999986 22.188893274040797 20.540391537654255
  endloop
endfacet
facet normal -1.0 0.0 5.828670879282073e-16
  outer loop
    vertex -28.999999999999986 22.188893274040797 20.540391537654255
    vertex -28.999999999999996 -36.38622445880474 -3.2338077862615578e-15
    vertex -28.999999999999986 20.227461510457072 21.87337918770105
  endloop
endfacet
facet normal -1.0 0.0 5.828670879282073e-16
  outer loop
    vertex -28.999999999999986 20.227461510457072 21.87337918770105
    vertex -28.999999999999996 -36.38622445880474 -3.2338077862615578e-15
    vertex -28.999999999999986 18.1862011973397 23.080577171655822
  endloop
endfacet
facet normal -1.0 0.0 5.828670879282073e-16
  outer loop
    vertex -28.999999999999986 18.1862011973397 23.080577171655822
    vertex -28.999999999999996 -36.38622445880474 -3.2338077862615578e-15
    vertex -28.999999999999986 16.073168256581436 24.157221230592217
  endloop
endfacet
facet normal -1.0 0.0 5.828670879282073e-16
  outer loop
    vertex -28.999999999999986 16.073168256581436 24.157221230592217
    vertex -28.999999999999996 -36.38622445880474 -3.2338077862615578e-15
    vertex -28.999999999999986 13.896701863846532 25.09906234228147
  endloop
endfacet
facet normal -1.0 0.0 5.828670879282073e-16
  outer loop
    vertex -28.999999999999986 13.896701863846532 25.09906234228147
    vertex -28.999999999999996 -36.38622445880474 -3.2338077862615578e-15
    vertex -28.999999999999986 11.66539153765421 25.90238349014203
  endloop
endfacet
facet normal -1.0 0.0 5.828670879282073e-16
  outer loop
    vertex -28.999999999999986 11.66539153765421 25.90238349014203
    vertex -28.999999999999996 -36.38622445880474 -3.2338077862615578e-15
    vertex -28.999999999999986 9.38804324047321 26.564014332605815
  endloop
endfacet
facet normal -1.0 0.0 5.828670879282073e-16
  outer loop
    vertex -28.999999999999986 9.38804324047321 26.564014332605815
    vertex -28.999999999999996 -36.38622445880474 -3.2338077862615578e-15
    vertex -28.999999999999986 7.073644625611055 27.081343715007986
  endloop
endfacet
facet normal -1.0 0.0 5.828670879282073e-16
  outer loop
    vertex -28.999999999999986 7.073644625611055 27.081343715007986
    vertex -28.999999999999996 -36.38622445880474 -3.2338077862615578e-15
    vertex -28.999999999999986 4.731329567052434 27.452329974621527
  endloop
endfacet
facet normal -1.0 0.0 5.828670879282073e-16
  outer loop
    vertex -28.999999999999986 4.731329567052434 27.452329974621527
    vertex -28.999999999999996 -36.38622445880474 -3.2338077862615578e-15
    vertex -28.999999999999986 2.370342112231525 27.675508998167235
  endloop
endfacet
facet normal -1.0 0.0 5.828670879282073e-16
  outer loop
    vertex -28.999999999999986 2.370342112231525 27.675508998167235
    vertex -28.999999999999996 -36.38622445880474 -3.2338077862615578e-15
    vertex -28.999999999999986 -5.0759396685862156e-14 27.74999999999999
  endloop
endfacet
facet normal -1.0 0.0 5.828670879282073e-16
  outer loop
    vertex -28.999999999999986 -5.0759396685862156e-14 27.74999999999999
    vertex -28.999999999999996 -36.38622445880474 -3.2338077862615578e-15
    vertex -28.999999999999986 -2.3703421122316324 27.675508998167235
  endloop
endfacet
facet normal -1.0 0.0 5.828670879282073e-16
  outer loop
    vertex -28.999999999999986 -2.3703421122316324 27.675508998167235
    vertex -28.999999999999996 -36.38622445880474 -3.2338077862615578e-15
    vertex -28.999999999999986 -4.731329567052541 27.452329974621527
  endloop
endfacet
facet normal -1.0 0.0 5.828670879282073e-16
  outer loop
    vertex -28.999999999999986 -4.731329567052541 27.452329974621527
    vertex -28.999999999999996 -36.38622445880474 -3.2338077862615578e-15
    vertex -28.999999999999986 -7.0736446256111565 27.081343715007986
  endloop
endfacet
facet normal -1.0 0.0 5.828670879282073e-16
  outer loop
    vertex -28.999999999999986 -7.0736446256111565 27.081343715007986
    vertex -28.999999999999996 -36.38622445880474 -3.2338077862615578e-15
    vertex -28.999999999999986 -9.388043240473325 26.564014332605815
  endloop
endfacet
facet normal -1.0 0.0 5.828670879282073e-16
  outer loop
    vertex -28.999999999999986 -9.388043240473325 26.564014332605815
    vertex -28.999999999999996 -36.38622445880474 -3.2338077862615578e-15
    vertex -28.999999999999986 -11.66539153765432 25.902383490142032
  endloop
endfacet
facet normal -1.0 0.0 5.828670879282073e-16
  outer loop
    vertex -28.999999999999986 -11.66539153765432 25.902383490142032
    vertex -28.999999999999996 -36.38622445880474 -3.2338077862615578e-15
    vertex -28.999999999999986 -13.896701863846648 25.09906234228147
  endloop
endfacet
facet normal -1.0 0.0 5.828670879282073e-16
  outer loop
    vertex -28.999999999999986 -13.896701863846648 25.09906234228147
    vertex -28.999999999999996 -36.38622445880474 -3.2338077862615578e-15
    vertex -28.999999999999986 -16.073168256581557 24.157221230592217
  endloop
endfacet
facet normal -1.0 0.0 5.828670879282073e-16
  outer loop
    vertex -28.999999999999986 -16.073168256581557 24.157221230592217
    vertex -28.999999999999996 -36.38622445880474 -3.2338077862615578e-15
    vertex -28.999999999999986 -18.18620119733981 23.080577171655836
  endloop
endfacet
facet normal -1.0 0.0 5.828670879282073e-16
  outer loop
    vertex -28.999999999999986 -18.18620119733981 23.080577171655836
    vertex -28.999999999999996 -36.38622445880474 -3.2338077862615578e-15
    vertex -28.999999999999986 -20.227461510457186 21.873379187701055
  endloop
endfacet
facet normal -1.0 0.0 5.828670879282073e-16
  outer loop
    vertex -28.999999999999986 -20.227461510457186 21.873379187701055
    vertex -28.999999999999996 -36.38622445880474 -3.2338077862615578e-15
    vertex -28.999999999999986 -22.18889327404092 20.54039153765426
  endloop
endfacet
facet normal -1.0 0.0 5.828670879282073e-16
  outer loop
    vertex -28.999999999999986 -22.18889327404092 20.54039153765426
    vertex -28.999999999999996 -36.38622445880474 -3.2338077862615578e-15
    vertex -28.999999999999986 -24.062755613013103 19.08687491478603
  endloop
endfacet
facet normal -1.0 0.0 5.828670879282073e-16
  outer loop
    vertex -28.999999999999986 -24.062755613013103 19.08687491478603
    vertex -28.999999999999996 -36.38622445880474 -3.2338077862615578e-15
    vertex -28.999999999999986 -25.841653248808054 17.518565685158276
  endloop
endfacet
facet normal -1.0 0.0 5.828670879282073e-16
  outer loop
    vertex -28.999999999999986 -25.841653248808054 17.518565685158276
    vertex -28.999999999999996 -36.38622445880474 -3.2338077862615578e-15
    vertex -28.999999999999986 -27.518565685158343 15.841653248807996
  endloop
endfacet
facet normal -1.0 0.0 5.828670879282073e-16
  outer loop
    vertex -28.999999999999986 -27.518565685158343 15.841653248807996
    vertex -28.999999999999996 -36.38622445880474 -3.2338077862615578e-15
    vertex -28.999999999999986 -29.086874914786105 14.062755613013035
  endloop
endfacet
facet normal -1.0 0.0 5.828670879282073e-16
  outer loop
    vertex -28.999999999999986 -29.086874914786105 14.062755613013035
    vertex -28.999999999999996 -36.38622445880474 -3.2338077862615578e-15
    vertex -28.999999999999986 -30.540391537654333 12.188893274040856
  endloop
endfacet
facet normal -1.0 0.0 5.828670879282073e-16
  outer loop
    vertex -28.999999999999986 -30.540391537654333 12.188893274040856
    vertex -28.999999999999996 -36.38622445880474 -3.2338077862615578e-15
    vertex -28.999999999999986 -31.87337918770113 10.22746151045712
  endloop
endfacet
facet normal -1.0 0.0 5.828670879282073e-16
  outer loop
    vertex -28.999999999999986 -31.87337918770113 10.22746151045712
    vertex -28.999999999999996 -36.38622445880474 -3.2338077862615578e-15
    vertex -28.999999999999996 -33.08057717165592 8.18620119733975
  endloop
endfacet
facet normal -1.0 0.0 5.828670879282073e-16
  outer loop
    vertex -28.999999999999996 -33.08057717165592 8.18620119733975
    vertex -28.999999999999996 -36.38622445880474 -3.2338077862615578e-15
    vertex -28.999999999999996 -34.1572212305923 6.073168256581492
  endloop
endfacet
facet normal -1.0 0.0 5.828670879282073e-16
  outer loop
    vertex -28.999999999999996 -34.1572212305923 6.073168256581492
    vertex -28.999999999999996 -36.38622445880474 -3.2338077862615578e-15
    vertex -28.999999999999996 -35.09906234228155 3.8967018638465882
  endloop
endfacet
facet normal -1.0 0.0 5.828670879282073e-16
  outer loop
    vertex -28.999999999999996 -35.09906234228155 3.8967018638465882
    vertex -28.999999999999996 -36.38622445880474 -3.2338077862615578e-15
    vertex -28.999999999999996 -35.902383490142114 1.6653915376542603
  endloop
endfacet
facet normal 3.572433495333686e-16 0.7901550123756896 0.6129070536529777
  outer loop
    vertex -28.999999999999986 29.08687491478598 14.062755613013016
    vertex 29.000000000000004 30.540391537654198 12.18889327404082
    vertex -28.999999999999986 30.540391537654198 12.188893274040854
  endloop
endfacet
facet normal 3.572433495333686e-16 0.7901550123756896 0.6129070536529777
  outer loop
    vertex 29.000000000000004 30.540391537654198 12.18889327404082
    vertex -28.999999999999986 29.08687491478598 14.062755613013016
    vertex 29.000000000000004 29.08687491478598 14.062755613012982
  endloop
endfacet
facet normal 2.9670348763327246e-16 -0.8607420270039419 0.5090414157503742
  outer loop
    vertex 29.000000000000004 -31.87337918770113 10.227461510457086
    vertex -28.999999999999996 -33.08057717165592 8.18620119733975
    vertex 29.000000000000004 -33.08057717165592 8.186201197339717
  endloop
endfacet
facet normal 2.9670348763327246e-16 -0.8607420270039419 0.5090414157503742
  outer loop
    vertex -28.999999999999996 -33.08057717165592 8.18620119733975
    vertex 29.000000000000004 -31.87337918770113 10.227461510457086
    vertex -28.999999999999986 -31.87337918770113 10.22746151045712
  endloop
endfacet
facet normal 1.6261473353495603e-16 -0.9602936856769428 0.2789911060392306
  outer loop
    vertex 28.999999999999996 -35.902383490142114 1.6653915376542263
    vertex -28.999999999999996 -36.38622445880474 -3.2338077862615578e-15
    vertex 28.999999999999996 -36.38622445880474 -3.7040098886097573e-14
  endloop
endfacet
facet normal 1.6261473353495603e-16 -0.9602936856769428 0.2789911060392306
  outer loop
    vertex -28.999999999999996 -36.38622445880474 -3.2338077862615578e-15
    vertex 28.999999999999996 -35.902383490142114 1.6653915376542263
    vertex -28.999999999999996 -35.902383490142114 1.6653915376542603
  endloop
endfacet
facet normal 1.9743918514423043e-16 0.9408807689542255 0.33873792024529153
  outer loop
    vertex -28.999999999999996 35.09906234228143 3.8967018638465722
    vertex 28.999999999999996 35.902383490141986 1.6653915376542083
    vertex -28.999999999999996 35.902383490141986 1.6653915376542423
  endloop
endfacet
facet normal 1.9743918514423043e-16 0.9408807689542255 0.33873792024529153
  outer loop
    vertex 28.999999999999996 35.902383490141986 1.6653915376542083
    vertex -28.999999999999996 35.09906234228143 3.8967018638465722
    vertex 28.999999999999996 35.09906234228143 3.8967018638465385
  endloop
endfacet
facet normal 5.016981987372109e-16 -0.5090414157503719 0.8607420270039435
  outer loop
    vertex -28.999999999999986 -18.18620119733981 23.080577171655836
    vertex 29.00000000000001 -20.227461510457186 21.87337918770102
    vertex 29.00000000000001 -18.18620119733981 23.080577171655804
  endloop
endfacet
facet normal 5.016981987372109e-16 -0.5090414157503719 0.8607420270039435
  outer loop
    vertex 29.00000000000001 -20.227461510457186 21.87337918770102
    vertex -28.999999999999986 -18.18620119733981 23.080577171655836
    vertex -28.999999999999986 -20.227461510457186 21.873379187701055
  endloop
endfacet
facet normal 4.3721505477821914e-16 -0.6613118653236512 0.7501110696304604
  outer loop
    vertex -28.999999999999986 -24.062755613013103 19.08687491478603
    vertex 29.00000000000001 -25.841653248808054 17.51856568515824
    vertex 29.00000000000001 -24.062755613013103 19.086874914785998
  endloop
endfacet
facet normal 4.3721505477821914e-16 -0.6613118653236512 0.7501110696304604
  outer loop
    vertex 29.00000000000001 -25.841653248808054 17.51856568515824
    vertex -28.999999999999986 -24.062755613013103 19.08687491478603
    vertex -28.999999999999986 -25.841653248808054 17.518565685158276
  endloop
endfacet
facet normal 4.121492704044903e-16 0.7071067811865488 0.7071067811865462
  outer loop
    vertex -28.999999999999986 25.841653248807933 17.51856568515827
    vertex 29.00000000000001 27.51856568515822 15.841653248807942
    vertex -28.999999999999986 27.51856568515822 15.841653248807976
  endloop
endfacet
facet normal 4.121492704044903e-16 0.7071067811865488 0.7071067811865462
  outer loop
    vertex 29.00000000000001 27.51856568515822 15.841653248807942
    vertex -28.999999999999986 25.841653248807933 17.51856568515827
    vertex 29.00000000000001 25.841653248807933 17.518565685158237
  endloop
endfacet
facet normal 2.3148443449112447e-16 -0.9177546256839814 0.3971478906347802
  outer loop
    vertex 29.000000000000004 -34.1572212305923 6.073168256581458
    vertex -28.999999999999996 -35.09906234228155 3.8967018638465882
    vertex 28.999999999999996 -35.09906234228155 3.8967018638465545
  endloop
endfacet
facet normal 2.3148443449112447e-16 -0.9177546256839814 0.3971478906347802
  outer loop
    vertex -28.999999999999996 -35.09906234228155 3.8967018638465882
    vertex 29.000000000000004 -34.1572212305923 6.073168256581458
    vertex -28.999999999999996 -34.1572212305923 6.073168256581492
  endloop
endfacet
facet normal 1.0 0.0 -5.828670879282073e-16
  outer loop
    vertex 28.999999999999996 35.902383490141986 1.6653915376542083
    vertex 28.999999999999996 -36.38622445880474 -3.7040098886097573e-14
    vertex 28.999999999999996 36.38622445880461 -4.511946372076636e-14
  endloop
endfacet
facet normal 1.0 0.0 -5.828670879282073e-16
  outer loop
    vertex 28.999999999999996 -36.38622445880474 -3.7040098886097573e-14
    vertex 28.999999999999996 35.902383490141986 1.6653915376542083
    vertex 28.999999999999996 35.09906234228143 3.8967018638465385
  endloop
endfacet
facet normal 1.0 0.0 -5.828670879282073e-16
  outer loop
    vertex 28.999999999999996 -36.38622445880474 -3.7040098886097573e-14
    vertex 28.999999999999996 35.09906234228143 3.8967018638465385
    vertex 29.000000000000004 34.15722123059218 6.073168256581442
  endloop
endfacet
facet normal 1.0 0.0 -5.828670879282073e-16
  outer loop
    vertex 28.999999999999996 -36.38622445880474 -3.7040098886097573e-14
    vertex 29.000000000000004 34.15722123059218 6.073168256581442
    vertex 29.000000000000004 33.08057717165578 8.186201197339704
  endloop
endfacet
facet normal 1.0 0.0 -5.828670879282073e-16
  outer loop
    vertex 28.999999999999996 -36.38622445880474 -3.7040098886097573e-14
    vertex 29.000000000000004 33.08057717165578 8.186201197339704
    vertex 29.000000000000004 31.873379187701005 10.22746151045708
  endloop
endfacet
facet normal 1.0 0.0 -5.828670879282073e-16
  outer loop
    vertex 28.999999999999996 -36.38622445880474 -3.7040098886097573e-14
    vertex 29.000000000000004 31.873379187701005 10.22746151045708
    vertex 29.000000000000004 30.540391537654198 12.18889327404082
  endloop
endfacet
facet normal 1.0 0.0 -5.828670879282073e-16
  outer loop
    vertex 28.999999999999996 -36.38622445880474 -3.7040098886097573e-14
    vertex 29.000000000000004 30.540391537654198 12.18889327404082
    vertex 29.000000000000004 29.08687491478598 14.062755613012982
  endloop
endfacet
facet normal 1.0 0.0 -5.828670879282073e-16
  outer loop
    vertex 28.999999999999996 -36.38622445880474 -3.7040098886097573e-14
    vertex 29.000000000000004 29.08687491478598 14.062755613012982
    vertex 29.00000000000001 27.51856568515822 15.841653248807942
  endloop
endfacet
facet normal 1.0 0.0 -5.828670879282073e-16
  outer loop
    vertex 28.999999999999996 -36.38622445880474 -3.7040098886097573e-14
    vertex 29.00000000000001 27.51856568515822 15.841653248807942
    vertex 29.00000000000001 25.841653248807933 17.518565685158237
  endloop
endfacet
facet normal 1.0 0.0 -5.828670879282073e-16
  outer loop
    vertex 28.999999999999996 -36.38622445880474 -3.7040098886097573e-14
    vertex 29.00000000000001 25.841653248807933 17.518565685158237
    vertex 29.00000000000001 24.06275561301298 19.08687491478599
  endloop
endfacet
facet normal 1.0 0.0 -5.828670879282073e-16
  outer loop
    vertex 28.999999999999996 -36.38622445880474 -3.7040098886097573e-14
    vertex 29.00000000000001 24.06275561301298 19.08687491478599
    vertex 29.00000000000001 22.188893274040797 20.54039153765422
  endloop
endfacet
facet normal 1.0 0.0 -5.828670879282073e-16
  outer loop
    vertex 28.999999999999996 -36.38622445880474 -3.7040098886097573e-14
    vertex 29.00000000000001 22.188893274040797 20.54039153765422
    vertex 29.00000000000001 20.227461510457072 21.873379187701016
  endloop
endfacet
facet normal 1.0 0.0 -5.828670879282073e-16
  outer loop
    vertex 28.999999999999996 -36.38622445880474 -3.7040098886097573e-14
    vertex 29.00000000000001 20.227461510457072 21.873379187701016
    vertex 29.00000000000001 18.1862011973397 23.08057717165579
  endloop
endfacet
facet normal 1.0 0.0 -5.828670879282073e-16
  outer loop
    vertex 28.999999999999996 -36.38622445880474 -3.7040098886097573e-14
    vertex 29.00000000000001 18.1862011973397 23.08057717165579
    vertex 29.00000000000001 16.073168256581436 24.15722123059218
  endloop
endfacet
facet normal 1.0 0.0 -5.828670879282073e-16
  outer loop
    vertex 28.999999999999996 -36.38622445880474 -3.7040098886097573e-14
    vertex 29.00000000000001 16.073168256581436 24.15722123059218
    vertex 29.000000000000014 13.896701863846532 25.099062342281435
  endloop
endfacet
facet normal 1.0 0.0 -5.828670879282073e-16
  outer loop
    vertex 28.999999999999996 -36.38622445880474 -3.7040098886097573e-14
    vertex 29.000000000000014 13.896701863846532 25.099062342281435
    vertex 29.000000000000014 11.66539153765421 25.902383490141993
  endloop
endfacet
facet normal 1.0 0.0 -5.828670879282073e-16
  outer loop
    vertex 28.999999999999996 -36.38622445880474 -3.7040098886097573e-14
    vertex 29.000000000000014 11.66539153765421 25.902383490141993
    vertex 29.000000000000014 9.38804324047321 26.56401433260578
  endloop
endfacet
facet normal 1.0 0.0 -5.828670879282073e-16
  outer loop
    vertex 28.999999999999996 -36.38622445880474 -3.7040098886097573e-14
    vertex 29.000000000000014 9.38804324047321 26.56401433260578
    vertex 29.000000000000014 7.073644625611055 27.08134371500795
  endloop
endfacet
facet normal 1.0 0.0 -5.828670879282073e-16
  outer loop
    vertex 28.999999999999996 -36.38622445880474 -3.7040098886097573e-14
    vertex 29.000000000000014 7.073644625611055 27.08134371500795
    vertex 29.000000000000014 4.731329567052434 27.45232997462149
  endloop
endfacet
facet normal 1.0 0.0 -5.828670879282073e-16
  outer loop
    vertex 28.999999999999996 -36.38622445880474 -3.7040098886097573e-14
    vertex 29.000000000000014 4.731329567052434 27.45232997462149
    vertex 29.000000000000014 2.370342112231525 27.6755089981672
  endloop
endfacet
facet normal 1.0 0.0 -5.828670879282073e-16
  outer loop
    vertex 28.999999999999996 -36.38622445880474 -3.7040098886097573e-14
    vertex 29.000000000000014 2.370342112231525 27.6755089981672
    vertex 29.000000000000014 -5.0759396685862156e-14 27.749999999999954
  endloop
endfacet
facet normal 1.0 0.0 -5.828670879282073e-16
  outer loop
    vertex 28.999999999999996 -36.38622445880474 -3.7040098886097573e-14
    vertex 29.000000000000014 -5.0759396685862156e-14 27.749999999999954
    vertex 29.000000000000014 -2.3703421122316324 27.6755089981672
  endloop
endfacet
facet normal 1.0 0.0 -5.828670879282073e-16
  outer loop
    vertex 28.999999999999996 -36.38622445880474 -3.7040098886097573e-14
    vertex 29.000000000000014 -2.3703421122316324 27.6755089981672
    vertex 29.000000000000014 -4.731329567052541 27.45232997462149
  endloop
endfacet
facet normal 1.0 0.0 -5.828670879282073e-16
  outer loop
    vertex 28.999999999999996 -36.38622445880474 -3.7040098886097573e-14
    vertex 29.000000000000014 -4.731329567052541 27.45232997462149
    vertex 29.000000000000014 -7.0736446256111565 27.08134371500795
  endloop
endfacet
facet normal 1.0 0.0 -5.828670879282073e-16
  outer loop
    vertex 28.999999999999996 -36.38622445880474 -3.7040098886097573e-14
    vertex 29.000000000000014 -7.0736446256111565 27.08134371500795
    vertex 29.000000000000014 -9.388043240473325 26.56401433260578
  endloop
endfacet
facet normal 1.0 0.0 -5.828670879282073e-16
  outer loop
    vertex 28.999999999999996 -36.38622445880474 -3.7040098886097573e-14
    vertex 29.000000000000014 -9.388043240473325 26.56401433260578
    vertex 29.000000000000014 -11.66539153765432 25.902383490142
  endloop
endfacet
facet normal 1.0 0.0 -5.828670879282073e-16
  outer loop
    vertex 28.999999999999996 -36.38622445880474 -3.7040098886097573e-14
    vertex 29.000000000000014 -11.66539153765432 25.902383490142
    vertex 29.000000000000014 -13.896701863846648 25.09906234228144
  endloop
endfacet
facet normal 1.0 0.0 -5.828670879282073e-16
  outer loop
    vertex 28.999999999999996 -36.38622445880474 -3.7040098886097573e-14
    vertex 29.000000000000014 -13.896701863846648 25.09906234228144
    vertex 29.00000000000001 -16.073168256581557 24.157221230592185
  endloop
endfacet
facet normal 1.0 0.0 -5.828670879282073e-16
  outer loop
    vertex 28.999999999999996 -36.38622445880474 -3.7040098886097573e-14
    vertex 29.00000000000001 -16.073168256581557 24.157221230592185
    vertex 29.00000000000001 -18.18620119733981 23.080577171655804
  endloop
endfacet
facet normal 1.0 0.0 -5.828670879282073e-16
  outer loop
    vertex 28.999999999999996 -36.38622445880474 -3.7040098886097573e-14
    vertex 29.00000000000001 -18.18620119733981 23.080577171655804
    vertex 29.00000000000001 -20.227461510457186 21.87337918770102
  endloop
endfacet
facet normal 1.0 0.0 -5.828670879282073e-16
  outer loop
    vertex 28.999999999999996 -36.38622445880474 -3.7040098886097573e-14
    vertex 29.00000000000001 -20.227461510457186 21.87337918770102
    vertex 29.00000000000001 -22.18889327404092 20.540391537654223
  endloop
endfacet
facet normal 1.0 0.0 -5.828670879282073e-16
  outer loop
    vertex 28.999999999999996 -36.38622445880474 -3.7040098886097573e-14
    vertex 29.00000000000001 -22.18889327404092 20.540391537654223
    vertex 29.00000000000001 -24.062755613013103 19.086874914785998
  endloop
endfacet
facet normal 1.0 0.0 -5.828670879282073e-16
  outer loop
    vertex 28.999999999999996 -36.38622445880474 -3.7040098886097573e-14
    vertex 29.00000000000001 -24.062755613013103 19.086874914785998
    vertex 29.00000000000001 -25.841653248808054 17.51856568515824
  endloop
endfacet
facet normal 1.0 0.0 -5.828670879282073e-16
  outer loop
    vertex 28.999999999999996 -36.38622445880474 -3.7040098886097573e-14
    vertex 29.00000000000001 -25.841653248808054 17.51856568515824
    vertex 29.00000000000001 -27.518565685158343 15.841653248807962
  endloop
endfacet
facet normal 1.0 0.0 -5.828670879282073e-16
  outer loop
    vertex 28.999999999999996 -36.38622445880474 -3.7040098886097573e-14
    vertex 29.00000000000001 -27.518565685158343 15.841653248807962
    vertex 29.000000000000004 -29.086874914786105 14.062755613013001
  endloop
endfacet
facet normal 1.0 0.0 -5.828670879282073e-16
  outer loop
    vertex 28.999999999999996 -36.38622445880474 -3.7040098886097573e-14
    vertex 29.000000000000004 -29.086874914786105 14.062755613013001
    vertex 29.000000000000004 -30.540391537654333 12.188893274040822
  endloop
endfacet
facet normal 1.0 0.0 -5.828670879282073e-16
  outer loop
    vertex 28.999999999999996 -36.38622445880474 -3.7040098886097573e-14
    vertex 29.000000000000004 -30.540391537654333 12.188893274040822
    vertex 29.000000000000004 -31.87337918770113 10.227461510457086
  endloop
endfacet
facet normal 1.0 0.0 -5.828670879282073e-16
  outer loop
    vertex 28.999999999999996 -36.38622445880474 -3.7040098886097573e-14
    vertex 29.000000000000004 -31.87337918770113 10.227461510457086
    vertex 29.000000000000004 -33.08057717165592 8.186201197339717
  endloop
endfacet
facet normal 1.0 0.0 -5.828670879282073e-16
  outer loop
    vertex 28.999999999999996 -36.38622445880474 -3.7040098886097573e-14
    vertex 29.000000000000004 -33.08057717165592 8.186201197339717
    vertex 29.000000000000004 -34.1572212305923 6.073168256581458
  endloop
endfacet
facet normal 1.0 0.0 -5.828670879282073e-16
  outer loop
    vertex 28.999999999999996 -36.38622445880474 -3.7040098886097573e-14
    vertex 29.000000000000004 -34.1572212305923 6.073168256581458
    vertex 28.999999999999996 -35.09906234228155 3.8967018638465545
  endloop
endfacet
facet normal 1.0 0.0 -5.828670879282073e-16
  outer loop
    vertex 28.999999999999996 -36.38622445880474 -3.7040098886097573e-14
    vertex 28.999999999999996 -35.09906234228155 3.8967018638465545
    vertex 28.999999999999996 -35.902383490142114 1.6653915376542263
  endloop
endfacet
facet normal 5.193383780787081e-16 -0.4539904997395459 0.8910065241883685
  outer loop
    vertex -28.999999999999986 -16.073168256581557 24.157221230592217
    vertex 29.00000000000001 -18.18620119733981 23.080577171655804
    vertex 29.00000000000001 -16.073168256581557 24.157221230592185
  endloop
endfacet
facet normal 5.193383780787081e-16 -0.4539904997395459 0.8910065241883685
  outer loop
    vertex 29.00000000000001 -18.18620119733981 23.080577171655804
    vertex -28.999999999999986 -16.073168256581557 24.157221230592217
    vertex -28.999999999999986 -18.18620119733981 23.080577171655836
  endloop
endfacet
facet normal 1.626147335349568e-16 0.9602936856769425 0.27899110603923194
  outer loop
    vertex -28.999999999999996 35.902383490141986 1.6653915376542423
    vertex 28.999999999999996 36.38622445880461 -4.511946372076636e-14
    vertex -28.999999999999996 36.38622445880461 -1.1313172620930343e-14
  endloop
endfacet
facet normal 1.626147335349568e-16 0.9602936856769425 0.27899110603923194
  outer loop
    vertex 28.999999999999996 36.38622445880461 -4.511946372076636e-14
    vertex -28.999999999999996 35.902383490141986 1.6653915376542423
    vertex 28.999999999999996 35.902383490141986 1.6653915376542083
  endloop
endfacet
facet normal 4.3721505477821864e-16 0.6613118653236519 0.7501110696304595
  outer loop
    vertex -28.999999999999986 25.841653248807933 17.51856568515827
    vertex 29.00000000000001 24.06275561301298 19.08687491478599
    vertex 29.00000000000001 25.841653248807933 17.518565685158237
  endloop
endfacet
facet normal 4.3721505477821864e-16 0.6613118653236519 0.7501110696304595
  outer loop
    vertex 29.00000000000001 24.06275561301298 19.08687491478599
    vertex -28.999999999999986 25.841653248807933 17.51856568515827
    vertex -28.999999999999986 24.06275561301298 19.086874914786026
  endloop
endfacet
facet normal 4.605553510752949e-16 -0.6129070536529772 0.79015501237569
  outer loop
    vertex -28.999999999999986 -22.18889327404092 20.54039153765426
    vertex 29.00000000000001 -24.062755613013103 19.086874914785998
    vertex 29.00000000000001 -22.18889327404092 20.540391537654223
  endloop
endfacet
facet normal 4.605553510752949e-16 -0.6129070536529772 0.79015501237569
  outer loop
    vertex 29.00000000000001 -24.062755613013103 19.086874914785998
    vertex -28.999999999999986 -22.18889327404092 20.54039153765426
    vertex -28.999999999999986 -24.062755613013103 19.08687491478603
  endloop
endfacet
facet normal 2.3148443449112437e-16 0.9177546256839814 0.39714789063477995
  outer loop
    vertex -28.999999999999996 34.15722123059218 6.073168256581476
    vertex 28.999999999999996 35.09906234228143 3.8967018638465385
    vertex -28.999999999999996 35.09906234228143 3.8967018638465722
  endloop
endfacet
facet normal 2.3148443449112437e-16 0.9177546256839814 0.39714789063477995
  outer loop
    vertex 28.999999999999996 35.09906234228143 3.8967018638465385
    vertex -28.999999999999996 34.15722123059218 6.073168256581476
    vertex 29.000000000000004 34.15722123059218 6.073168256581442
  endloop
endfacet
endsolid watchWinder_Rubber-2X
